<svg xmlns="http://www.w3.org/2000/svg" width="529.071" height="67.2" viewBox="0 0 529.071 67.2">
  <g id="intercom-logo" transform="translate(-5544.707 -4942.035)" opacity="0.25">
    <path id="Path_1" data-name="Path 1" d="M21.12-67.3H7.968a1.723,1.723,0,0,0-1.92,1.92,1.723,1.723,0,0,0,1.92,1.92H21.12a1.723,1.723,0,0,0,1.92-1.92A1.723,1.723,0,0,0,21.12-67.3Zm0,5.28H7.968a1.723,1.723,0,0,0-1.92,1.92,1.723,1.723,0,0,0,1.92,1.92H21.12a1.723,1.723,0,0,0,1.92-1.92A1.723,1.723,0,0,0,21.12-62.016Zm0,5.28H7.968a1.723,1.723,0,0,0-1.92,1.92,1.723,1.723,0,0,0,1.92,1.92H21.12a1.723,1.723,0,0,0,1.92-1.92A1.723,1.723,0,0,0,21.12-56.736Zm0,5.28H7.968a1.723,1.723,0,0,0-1.92,1.92,1.723,1.723,0,0,0,1.92,1.92H21.12a1.723,1.723,0,0,0,1.92-1.92A1.723,1.723,0,0,0,21.12-51.456Zm0,5.28H7.968a1.723,1.723,0,0,0-1.92,1.92,1.723,1.723,0,0,0,1.92,1.92H21.12a1.723,1.723,0,0,0,1.92-1.92A1.723,1.723,0,0,0,21.12-46.176Zm0,5.28H7.968a1.723,1.723,0,0,0-1.92,1.92,1.723,1.723,0,0,0,1.92,1.92H21.12a1.723,1.723,0,0,0,1.92-1.92A1.723,1.723,0,0,0,21.12-40.9Zm0,5.28H7.968a1.723,1.723,0,0,0-1.92,1.92,1.723,1.723,0,0,0,1.92,1.92H21.12a1.723,1.723,0,0,0,1.92-1.92A1.723,1.723,0,0,0,21.12-35.616Zm0,5.28H7.968a1.723,1.723,0,0,0-1.92,1.92,1.723,1.723,0,0,0,1.92,1.92H21.12a1.723,1.723,0,0,0,1.92-1.92A1.723,1.723,0,0,0,21.12-30.336Zm0,5.28H7.968a1.723,1.723,0,0,0-1.92,1.92,1.723,1.723,0,0,0,1.92,1.92H21.12a1.723,1.723,0,0,0,1.92-1.92A1.723,1.723,0,0,0,21.12-25.056Zm0,5.28H7.968a1.723,1.723,0,0,0-1.92,1.92,1.723,1.723,0,0,0,1.92,1.92H21.12a1.723,1.723,0,0,0,1.92-1.92A1.723,1.723,0,0,0,21.12-19.776Zm0,5.28H7.968a1.723,1.723,0,0,0-1.92,1.92,1.723,1.723,0,0,0,1.92,1.92H21.12a1.723,1.723,0,0,0,1.92-1.92A1.723,1.723,0,0,0,21.12-14.5Zm0,5.28H7.968A1.723,1.723,0,0,0,6.048-7.3a1.723,1.723,0,0,0,1.92,1.92H21.12A1.723,1.723,0,0,0,23.04-7.3,1.723,1.723,0,0,0,21.12-9.216Zm0,5.28H7.968a1.723,1.723,0,0,0-1.92,1.92A1.723,1.723,0,0,0,7.968-.1H21.12a1.723,1.723,0,0,0,1.92-1.92A1.723,1.723,0,0,0,21.12-3.936Z" transform="translate(5538.659 5009.331)" fill="#fff"/>
    <path id="Path_2" data-name="Path 2" d="M21.5-67.3H7.968a1.723,1.723,0,0,0-1.92,1.92,1.723,1.723,0,0,0,1.92,1.92H21.5a1.723,1.723,0,0,0,1.92-1.92A1.723,1.723,0,0,0,21.5-67.3Zm48.384,0H56.64a1.723,1.723,0,0,0-1.92,1.92,1.723,1.723,0,0,0,1.92,1.92H69.888a1.723,1.723,0,0,0,1.92-1.92A1.723,1.723,0,0,0,69.888-67.3Zm-44.256,5.28H7.968a1.723,1.723,0,0,0-1.92,1.92,1.723,1.723,0,0,0,1.92,1.92H25.632a1.723,1.723,0,0,0,1.92-1.92A1.723,1.723,0,0,0,25.632-62.016Zm44.256,0H56.64a1.723,1.723,0,0,0-1.92,1.92,1.723,1.723,0,0,0,1.92,1.92H69.888a1.723,1.723,0,0,0,1.92-1.92A1.723,1.723,0,0,0,69.888-62.016ZM29.76-56.736H7.968a1.723,1.723,0,0,0-1.92,1.92,1.723,1.723,0,0,0,1.92,1.92H29.76a1.723,1.723,0,0,0,1.92-1.92A1.723,1.723,0,0,0,29.76-56.736Zm40.128,0H56.64a1.723,1.723,0,0,0-1.92,1.92,1.723,1.723,0,0,0,1.92,1.92H69.888a1.723,1.723,0,0,0,1.92-1.92A1.723,1.723,0,0,0,69.888-56.736Zm-36,5.28H7.968a1.723,1.723,0,0,0-1.92,1.92,1.723,1.723,0,0,0,1.92,1.92h25.92a1.723,1.723,0,0,0,1.92-1.92A1.723,1.723,0,0,0,33.888-51.456Zm36,0H56.64a1.723,1.723,0,0,0-1.92,1.92,1.723,1.723,0,0,0,1.92,1.92H69.888a1.723,1.723,0,0,0,1.92-1.92A1.723,1.723,0,0,0,69.888-51.456Zm-31.872,5.28H7.968a1.723,1.723,0,0,0-1.92,1.92,1.723,1.723,0,0,0,1.92,1.92H38.016a1.723,1.723,0,0,0,1.92-1.92A1.723,1.723,0,0,0,38.016-46.176Zm31.872,0H56.64a1.723,1.723,0,0,0-1.92,1.92,1.723,1.723,0,0,0,1.92,1.92H69.888a1.723,1.723,0,0,0,1.92-1.92A1.723,1.723,0,0,0,69.888-46.176ZM21.216-40.9H7.968a1.723,1.723,0,0,0-1.92,1.92,1.723,1.723,0,0,0,1.92,1.92H21.216a1.723,1.723,0,0,0,1.92-1.92A1.723,1.723,0,0,0,21.216-40.9Zm20.928,0H27.456a1.723,1.723,0,0,0-1.92,1.92,1.723,1.723,0,0,0,1.92,1.92H42.144a1.723,1.723,0,0,0,1.92-1.92A1.723,1.723,0,0,0,42.144-40.9Zm27.744,0H56.64a1.723,1.723,0,0,0-1.92,1.92,1.723,1.723,0,0,0,1.92,1.92H69.888a1.723,1.723,0,0,0,1.92-1.92A1.723,1.723,0,0,0,69.888-40.9Zm-48.672,5.28H7.968a1.723,1.723,0,0,0-1.92,1.92,1.723,1.723,0,0,0,1.92,1.92H21.216a1.723,1.723,0,0,0,1.92-1.92A1.723,1.723,0,0,0,21.216-35.616Zm25.056,0H31.584a1.723,1.723,0,0,0-1.92,1.92,1.723,1.723,0,0,0,1.92,1.92H46.272a1.723,1.723,0,0,0,1.92-1.92A1.723,1.723,0,0,0,46.272-35.616Zm23.616,0H56.64a1.723,1.723,0,0,0-1.92,1.92,1.723,1.723,0,0,0,1.92,1.92H69.888a1.723,1.723,0,0,0,1.92-1.92A1.723,1.723,0,0,0,69.888-35.616Zm-48.672,5.28H7.968a1.723,1.723,0,0,0-1.92,1.92,1.723,1.723,0,0,0,1.92,1.92H21.216a1.723,1.723,0,0,0,1.92-1.92A1.723,1.723,0,0,0,21.216-30.336Zm29.184,0H35.712a1.723,1.723,0,0,0-1.92,1.92,1.723,1.723,0,0,0,1.92,1.92H50.4a1.723,1.723,0,0,0,1.92-1.92A1.723,1.723,0,0,0,50.4-30.336Zm19.488,0H56.64a1.723,1.723,0,0,0-1.92,1.92,1.723,1.723,0,0,0,1.92,1.92H69.888a1.723,1.723,0,0,0,1.92-1.92A1.723,1.723,0,0,0,69.888-30.336Zm-48.672,5.28H7.968a1.723,1.723,0,0,0-1.92,1.92,1.723,1.723,0,0,0,1.92,1.92H21.216a1.723,1.723,0,0,0,1.92-1.92A1.723,1.723,0,0,0,21.216-25.056Zm48.672,0H39.84a1.723,1.723,0,0,0-1.92,1.92,1.723,1.723,0,0,0,1.92,1.92H69.888a1.723,1.723,0,0,0,1.92-1.92A1.723,1.723,0,0,0,69.888-25.056Zm-48.672,5.28H7.968a1.723,1.723,0,0,0-1.92,1.92,1.723,1.723,0,0,0,1.92,1.92H21.216a1.723,1.723,0,0,0,1.92-1.92A1.723,1.723,0,0,0,21.216-19.776Zm48.672,0H44.064a1.723,1.723,0,0,0-1.92,1.92,1.723,1.723,0,0,0,1.92,1.92H69.888a1.723,1.723,0,0,0,1.92-1.92A1.723,1.723,0,0,0,69.888-19.776ZM21.216-14.5H7.968a1.723,1.723,0,0,0-1.92,1.92,1.723,1.723,0,0,0,1.92,1.92H21.216a1.723,1.723,0,0,0,1.92-1.92A1.723,1.723,0,0,0,21.216-14.5Zm48.672,0h-21.7a1.723,1.723,0,0,0-1.92,1.92,1.723,1.723,0,0,0,1.92,1.92h21.7a1.723,1.723,0,0,0,1.92-1.92A1.723,1.723,0,0,0,69.888-14.5ZM21.216-9.216H7.968A1.723,1.723,0,0,0,6.048-7.3a1.723,1.723,0,0,0,1.92,1.92H21.216a1.723,1.723,0,0,0,1.92-1.92A1.723,1.723,0,0,0,21.216-9.216Zm48.672,0H52.32A1.723,1.723,0,0,0,50.4-7.3a1.723,1.723,0,0,0,1.92,1.92H69.888a1.723,1.723,0,0,0,1.92-1.92A1.723,1.723,0,0,0,69.888-9.216ZM21.216-3.936H7.968a1.723,1.723,0,0,0-1.92,1.92A1.723,1.723,0,0,0,7.968-.1H21.216a1.723,1.723,0,0,0,1.92-1.92A1.723,1.723,0,0,0,21.216-3.936Zm48.672,0H56.448a1.723,1.723,0,0,0-1.92,1.92A1.723,1.723,0,0,0,56.448-.1h13.44a1.723,1.723,0,0,0,1.92-1.92A1.723,1.723,0,0,0,69.888-3.936Z" transform="translate(5564.861 5009.331)" fill="#fff"/>
    <path id="Path_3" data-name="Path 3" d="M59.328-67.3H3.552a1.723,1.723,0,0,0-1.92,1.92,1.723,1.723,0,0,0,1.92,1.92H59.328a1.723,1.723,0,0,0,1.92-1.92A1.723,1.723,0,0,0,59.328-67.3Zm0,5.28H3.552a1.723,1.723,0,0,0-1.92,1.92,1.723,1.723,0,0,0,1.92,1.92H59.328a1.723,1.723,0,0,0,1.92-1.92A1.723,1.723,0,0,0,59.328-62.016Zm0,5.28H3.552a1.723,1.723,0,0,0-1.92,1.92,1.723,1.723,0,0,0,1.92,1.92H59.328a1.723,1.723,0,0,0,1.92-1.92A1.723,1.723,0,0,0,59.328-56.736Zm-21.216,5.28H24.768a1.723,1.723,0,0,0-1.92,1.92,1.723,1.723,0,0,0,1.92,1.92H38.112a1.723,1.723,0,0,0,1.92-1.92A1.723,1.723,0,0,0,38.112-51.456Zm0,5.28H24.768a1.723,1.723,0,0,0-1.92,1.92,1.723,1.723,0,0,0,1.92,1.92H38.112a1.723,1.723,0,0,0,1.92-1.92A1.723,1.723,0,0,0,38.112-46.176Zm0,5.28H24.768a1.723,1.723,0,0,0-1.92,1.92,1.723,1.723,0,0,0,1.92,1.92H38.112a1.723,1.723,0,0,0,1.92-1.92A1.723,1.723,0,0,0,38.112-40.9Zm0,5.28H24.768a1.723,1.723,0,0,0-1.92,1.92,1.723,1.723,0,0,0,1.92,1.92H38.112a1.723,1.723,0,0,0,1.92-1.92A1.723,1.723,0,0,0,38.112-35.616Zm0,5.28H24.768a1.723,1.723,0,0,0-1.92,1.92,1.723,1.723,0,0,0,1.92,1.92H38.112a1.723,1.723,0,0,0,1.92-1.92A1.723,1.723,0,0,0,38.112-30.336Zm0,5.28H24.768a1.723,1.723,0,0,0-1.92,1.92,1.723,1.723,0,0,0,1.92,1.92H38.112a1.723,1.723,0,0,0,1.92-1.92A1.723,1.723,0,0,0,38.112-25.056Zm0,5.28H24.768a1.723,1.723,0,0,0-1.92,1.92,1.723,1.723,0,0,0,1.92,1.92H38.112a1.723,1.723,0,0,0,1.92-1.92A1.723,1.723,0,0,0,38.112-19.776Zm0,5.28H24.768a1.723,1.723,0,0,0-1.92,1.92,1.723,1.723,0,0,0,1.92,1.92H38.112a1.723,1.723,0,0,0,1.92-1.92A1.723,1.723,0,0,0,38.112-14.5Zm0,5.28H24.768a1.723,1.723,0,0,0-1.92,1.92,1.723,1.723,0,0,0,1.92,1.92H38.112a1.723,1.723,0,0,0,1.92-1.92A1.723,1.723,0,0,0,38.112-9.216Zm0,5.28H24.768a1.723,1.723,0,0,0-1.92,1.92A1.723,1.723,0,0,0,24.768-.1H38.112a1.723,1.723,0,0,0,1.92-1.92A1.723,1.723,0,0,0,38.112-3.936Z" transform="translate(5639.848 5009.331)" fill="#fff"/>
    <path id="Path_4" data-name="Path 4" d="M61.44-67.3H7.968a1.723,1.723,0,0,0-1.92,1.92,1.723,1.723,0,0,0,1.92,1.92H61.44a1.723,1.723,0,0,0,1.92-1.92A1.723,1.723,0,0,0,61.44-67.3Zm0,5.28H7.968a1.723,1.723,0,0,0-1.92,1.92,1.723,1.723,0,0,0,1.92,1.92H61.44a1.723,1.723,0,0,0,1.92-1.92A1.723,1.723,0,0,0,61.44-62.016Zm0,5.28H7.968a1.723,1.723,0,0,0-1.92,1.92,1.723,1.723,0,0,0,1.92,1.92H61.44a1.723,1.723,0,0,0,1.92-1.92A1.723,1.723,0,0,0,61.44-56.736Zm-40.32,5.28H7.968a1.723,1.723,0,0,0-1.92,1.92,1.723,1.723,0,0,0,1.92,1.92H21.12a1.723,1.723,0,0,0,1.92-1.92A1.723,1.723,0,0,0,21.12-51.456Zm0,5.28H7.968a1.723,1.723,0,0,0-1.92,1.92,1.723,1.723,0,0,0,1.92,1.92H21.12a1.723,1.723,0,0,0,1.92-1.92A1.723,1.723,0,0,0,21.12-46.176ZM46.752-40.9H7.968a1.723,1.723,0,0,0-1.92,1.92,1.723,1.723,0,0,0,1.92,1.92H46.752a1.723,1.723,0,0,0,1.92-1.92A1.723,1.723,0,0,0,46.752-40.9Zm0,5.28H7.968a1.723,1.723,0,0,0-1.92,1.92,1.723,1.723,0,0,0,1.92,1.92H46.752a1.723,1.723,0,0,0,1.92-1.92A1.723,1.723,0,0,0,46.752-35.616Zm0,5.28H7.968a1.723,1.723,0,0,0-1.92,1.92,1.723,1.723,0,0,0,1.92,1.92H46.752a1.723,1.723,0,0,0,1.92-1.92A1.723,1.723,0,0,0,46.752-30.336ZM21.12-25.056H7.968a1.723,1.723,0,0,0-1.92,1.92,1.723,1.723,0,0,0,1.92,1.92H21.12a1.723,1.723,0,0,0,1.92-1.92A1.723,1.723,0,0,0,21.12-25.056Zm0,5.28H7.968a1.723,1.723,0,0,0-1.92,1.92,1.723,1.723,0,0,0,1.92,1.92H21.12a1.723,1.723,0,0,0,1.92-1.92A1.723,1.723,0,0,0,21.12-19.776ZM61.44-14.5H7.968a1.723,1.723,0,0,0-1.92,1.92,1.723,1.723,0,0,0,1.92,1.92H61.44a1.723,1.723,0,0,0,1.92-1.92A1.723,1.723,0,0,0,61.44-14.5Zm0,5.28H7.968A1.723,1.723,0,0,0,6.048-7.3a1.723,1.723,0,0,0,1.92,1.92H61.44A1.723,1.723,0,0,0,63.36-7.3,1.723,1.723,0,0,0,61.44-9.216Zm0,5.28H7.968a1.723,1.723,0,0,0-1.92,1.92A1.723,1.723,0,0,0,7.968-.1H61.44a1.723,1.723,0,0,0,1.92-1.92A1.723,1.723,0,0,0,61.44-3.936Z" transform="translate(5699.853 5009.331)" fill="#fff"/>
    <path id="Path_5" data-name="Path 5" d="M56.64-67.3H7.968a1.723,1.723,0,0,0-1.92,1.92,1.723,1.723,0,0,0,1.92,1.92H56.64a1.723,1.723,0,0,0,1.92-1.92A1.723,1.723,0,0,0,56.64-67.3Zm6.72,5.28H7.968a1.723,1.723,0,0,0-1.92,1.92,1.723,1.723,0,0,0,1.92,1.92H63.36a1.723,1.723,0,0,0,1.92-1.92A1.723,1.723,0,0,0,63.36-62.016Zm2.976,5.28H7.968a1.723,1.723,0,0,0-1.92,1.92,1.723,1.723,0,0,0,1.92,1.92H66.336a1.723,1.723,0,0,0,1.92-1.92A1.723,1.723,0,0,0,66.336-56.736Zm-45.12,5.28H7.968a1.723,1.723,0,0,0-1.92,1.92,1.723,1.723,0,0,0,1.92,1.92H21.216a1.723,1.723,0,0,0,1.92-1.92A1.723,1.723,0,0,0,21.216-51.456Zm46.656,0H52.32a1.723,1.723,0,0,0-1.92,1.92,1.723,1.723,0,0,0,1.92,1.92H67.872a1.723,1.723,0,0,0,1.92-1.92A1.723,1.723,0,0,0,67.872-51.456Zm-46.656,5.28H7.968a1.723,1.723,0,0,0-1.92,1.92,1.723,1.723,0,0,0,1.92,1.92H21.216a1.723,1.723,0,0,0,1.92-1.92A1.723,1.723,0,0,0,21.216-46.176Zm47.136,0H55.008a1.723,1.723,0,0,0-1.92,1.92,1.723,1.723,0,0,0,1.92,1.92H68.352a1.723,1.723,0,0,0,1.92-1.92A1.723,1.723,0,0,0,68.352-46.176ZM21.216-40.9H7.968a1.723,1.723,0,0,0-1.92,1.92,1.723,1.723,0,0,0,1.92,1.92H21.216a1.723,1.723,0,0,0,1.92-1.92A1.723,1.723,0,0,0,21.216-40.9Zm47.136,0H55.008a1.723,1.723,0,0,0-1.92,1.92,1.723,1.723,0,0,0,1.92,1.92H68.352a1.723,1.723,0,0,0,1.92-1.92A1.723,1.723,0,0,0,68.352-40.9Zm-47.136,5.28H7.968a1.723,1.723,0,0,0-1.92,1.92,1.723,1.723,0,0,0,1.92,1.92H21.216a1.723,1.723,0,0,0,1.92-1.92A1.723,1.723,0,0,0,21.216-35.616Zm46.656,0H52.32A1.723,1.723,0,0,0,50.4-33.7a1.723,1.723,0,0,0,1.92,1.92H67.872a1.723,1.723,0,0,0,1.92-1.92A1.723,1.723,0,0,0,67.872-35.616Zm-1.536,5.28H7.968a1.723,1.723,0,0,0-1.92,1.92,1.723,1.723,0,0,0,1.92,1.92H66.336a1.723,1.723,0,0,0,1.92-1.92A1.723,1.723,0,0,0,66.336-30.336Zm-2.976,5.28H7.968a1.723,1.723,0,0,0-1.92,1.92,1.723,1.723,0,0,0,1.92,1.92H63.36a1.723,1.723,0,0,0,1.92-1.92A1.723,1.723,0,0,0,63.36-25.056Zm-6.72,5.28H7.968a1.723,1.723,0,0,0-1.92,1.92,1.723,1.723,0,0,0,1.92,1.92H56.64a1.723,1.723,0,0,0,1.92-1.92A1.723,1.723,0,0,0,56.64-19.776ZM21.216-14.5H7.968a1.723,1.723,0,0,0-1.92,1.92,1.723,1.723,0,0,0,1.92,1.92H21.216a1.723,1.723,0,0,0,1.92-1.92A1.723,1.723,0,0,0,21.216-14.5Zm38.592,0H45.216a1.723,1.723,0,0,0-1.92,1.92,1.723,1.723,0,0,0,1.92,1.92H59.808a1.723,1.723,0,0,0,1.92-1.92A1.723,1.723,0,0,0,59.808-14.5ZM21.216-9.216H7.968A1.723,1.723,0,0,0,6.048-7.3a1.723,1.723,0,0,0,1.92,1.92H21.216a1.723,1.723,0,0,0,1.92-1.92A1.723,1.723,0,0,0,21.216-9.216Zm42.336,0H48.48A1.723,1.723,0,0,0,46.56-7.3a1.723,1.723,0,0,0,1.92,1.92H63.552a1.723,1.723,0,0,0,1.92-1.92A1.723,1.723,0,0,0,63.552-9.216ZM21.216-3.936H7.968a1.723,1.723,0,0,0-1.92,1.92A1.723,1.723,0,0,0,7.968-.1H21.216a1.723,1.723,0,0,0,1.92-1.92A1.723,1.723,0,0,0,21.216-3.936ZM51.744-.1H67.2a1.723,1.723,0,0,0,1.92-1.92,1.723,1.723,0,0,0-1.92-1.92H51.744a1.723,1.723,0,0,0-1.92,1.92A1.723,1.723,0,0,0,51.744-.1Z" transform="translate(5763.893 5009.331)" fill="#fff"/>
    <path id="Path_6" data-name="Path 6" d="M57.792-67.3H18.816a1.723,1.723,0,0,0-1.92,1.92,1.723,1.723,0,0,0,1.92,1.92H57.792a1.723,1.723,0,0,0,1.92-1.92A1.723,1.723,0,0,0,57.792-67.3Zm7.2,5.28H11.616A1.723,1.723,0,0,0,9.7-60.1a1.723,1.723,0,0,0,1.92,1.92H64.992a1.723,1.723,0,0,0,1.92-1.92A1.723,1.723,0,0,0,64.992-62.016Zm2.976,5.28H8.544a1.723,1.723,0,0,0-1.92,1.92,1.723,1.723,0,0,0,1.92,1.92H67.968a1.723,1.723,0,0,0,1.92-1.92A1.723,1.723,0,0,0,67.968-56.736Zm-46.656,5.28H7.1a1.723,1.723,0,0,0-1.92,1.92,1.723,1.723,0,0,0,1.92,1.92H21.312a1.723,1.723,0,0,0,1.92-1.92A1.723,1.723,0,0,0,21.312-51.456Zm48.1,0H55.2a1.723,1.723,0,0,0-1.92,1.92,1.723,1.723,0,0,0,1.92,1.92H69.408a1.723,1.723,0,0,0,1.92-1.92A1.723,1.723,0,0,0,69.408-51.456Zm-49.44,5.28H6.72a1.723,1.723,0,0,0-1.92,1.92,1.723,1.723,0,0,0,1.92,1.92H19.968a1.723,1.723,0,0,0,1.92-1.92A1.723,1.723,0,0,0,19.968-46.176Zm49.824,0H56.544a1.723,1.723,0,0,0-1.92,1.92,1.723,1.723,0,0,0,1.92,1.92H69.792a1.723,1.723,0,0,0,1.92-1.92A1.723,1.723,0,0,0,69.792-46.176ZM19.968-40.9H6.72a1.723,1.723,0,0,0-1.92,1.92,1.723,1.723,0,0,0,1.92,1.92H19.968a1.723,1.723,0,0,0,1.92-1.92A1.723,1.723,0,0,0,19.968-40.9Zm0,5.28H6.72A1.723,1.723,0,0,0,4.8-33.7a1.723,1.723,0,0,0,1.92,1.92H19.968a1.723,1.723,0,0,0,1.92-1.92A1.723,1.723,0,0,0,19.968-35.616Zm0,5.28H6.72a1.723,1.723,0,0,0-1.92,1.92A1.723,1.723,0,0,0,6.72-26.5H19.968a1.723,1.723,0,0,0,1.92-1.92A1.723,1.723,0,0,0,19.968-30.336Zm0,5.28H6.72a1.723,1.723,0,0,0-1.92,1.92,1.723,1.723,0,0,0,1.92,1.92H19.968a1.723,1.723,0,0,0,1.92-1.92A1.723,1.723,0,0,0,19.968-25.056Zm49.824,0H56.544a1.723,1.723,0,0,0-1.92,1.92,1.723,1.723,0,0,0,1.92,1.92H69.792a1.723,1.723,0,0,0,1.92-1.92A1.723,1.723,0,0,0,69.792-25.056Zm-48.48,5.28H7.1a1.723,1.723,0,0,0-1.92,1.92,1.723,1.723,0,0,0,1.92,1.92H21.312a1.723,1.723,0,0,0,1.92-1.92A1.723,1.723,0,0,0,21.312-19.776Zm48.1,0H55.2a1.723,1.723,0,0,0-1.92,1.92,1.723,1.723,0,0,0,1.92,1.92H69.408a1.723,1.723,0,0,0,1.92-1.92A1.723,1.723,0,0,0,69.408-19.776Zm-1.44,5.28H8.544a1.723,1.723,0,0,0-1.92,1.92,1.723,1.723,0,0,0,1.92,1.92H67.968a1.723,1.723,0,0,0,1.92-1.92A1.723,1.723,0,0,0,67.968-14.5Zm-2.976,5.28H11.616A1.723,1.723,0,0,0,9.7-7.3a1.723,1.723,0,0,0,1.92,1.92H64.992a1.723,1.723,0,0,0,1.92-1.92A1.723,1.723,0,0,0,64.992-9.216Zm-7.2,5.28H18.816a1.723,1.723,0,0,0-1.92,1.92A1.723,1.723,0,0,0,18.816-.1H57.792a1.723,1.723,0,0,0,1.92-1.92A1.723,1.723,0,0,0,57.792-3.936Z" transform="translate(5836.088 5009.331)" fill="#fff"/>
    <path id="Path_7" data-name="Path 7" d="M61.632-67.3H18.816a1.723,1.723,0,0,0-1.92,1.92,1.723,1.723,0,0,0,1.92,1.92H61.632a1.723,1.723,0,0,0,1.92-1.92A1.723,1.723,0,0,0,61.632-67.3Zm7.2,5.28H11.616A1.723,1.723,0,0,0,9.7-60.1a1.723,1.723,0,0,0,1.92,1.92H68.832a1.723,1.723,0,0,0,1.92-1.92A1.723,1.723,0,0,0,68.832-62.016Zm2.976,5.28H8.544a1.723,1.723,0,0,0-1.92,1.92,1.723,1.723,0,0,0,1.92,1.92H71.808a1.723,1.723,0,0,0,1.92-1.92A1.723,1.723,0,0,0,71.808-56.736Zm-50.5,5.28H7.1a1.723,1.723,0,0,0-1.92,1.92,1.723,1.723,0,0,0,1.92,1.92H21.312a1.723,1.723,0,0,0,1.92-1.92A1.723,1.723,0,0,0,21.312-51.456Zm51.936,0H59.04a1.723,1.723,0,0,0-1.92,1.92,1.723,1.723,0,0,0,1.92,1.92H73.248a1.723,1.723,0,0,0,1.92-1.92A1.723,1.723,0,0,0,73.248-51.456Zm-53.28,5.28H6.72a1.723,1.723,0,0,0-1.92,1.92,1.723,1.723,0,0,0,1.92,1.92H19.968a1.723,1.723,0,0,0,1.92-1.92A1.723,1.723,0,0,0,19.968-46.176Zm53.664,0H60.384a1.723,1.723,0,0,0-1.92,1.92,1.723,1.723,0,0,0,1.92,1.92H73.632a1.723,1.723,0,0,0,1.92-1.92A1.723,1.723,0,0,0,73.632-46.176ZM19.968-40.9H6.72a1.723,1.723,0,0,0-1.92,1.92,1.723,1.723,0,0,0,1.92,1.92H19.968a1.723,1.723,0,0,0,1.92-1.92A1.723,1.723,0,0,0,19.968-40.9Zm53.664,0H60.384a1.723,1.723,0,0,0-1.92,1.92,1.723,1.723,0,0,0,1.92,1.92H73.632a1.723,1.723,0,0,0,1.92-1.92A1.723,1.723,0,0,0,73.632-40.9Zm-53.664,5.28H6.72A1.723,1.723,0,0,0,4.8-33.7a1.723,1.723,0,0,0,1.92,1.92H19.968a1.723,1.723,0,0,0,1.92-1.92A1.723,1.723,0,0,0,19.968-35.616Zm53.664,0H60.384a1.723,1.723,0,0,0-1.92,1.92,1.723,1.723,0,0,0,1.92,1.92H73.632a1.723,1.723,0,0,0,1.92-1.92A1.723,1.723,0,0,0,73.632-35.616Zm-53.664,5.28H6.72a1.723,1.723,0,0,0-1.92,1.92A1.723,1.723,0,0,0,6.72-26.5H19.968a1.723,1.723,0,0,0,1.92-1.92A1.723,1.723,0,0,0,19.968-30.336Zm53.664,0H60.384a1.723,1.723,0,0,0-1.92,1.92,1.723,1.723,0,0,0,1.92,1.92H73.632a1.723,1.723,0,0,0,1.92-1.92A1.723,1.723,0,0,0,73.632-30.336Zm-53.664,5.28H6.72a1.723,1.723,0,0,0-1.92,1.92,1.723,1.723,0,0,0,1.92,1.92H19.968a1.723,1.723,0,0,0,1.92-1.92A1.723,1.723,0,0,0,19.968-25.056Zm53.664,0H60.384a1.723,1.723,0,0,0-1.92,1.92,1.723,1.723,0,0,0,1.92,1.92H73.632a1.723,1.723,0,0,0,1.92-1.92A1.723,1.723,0,0,0,73.632-25.056Zm-52.32,5.28H7.1a1.723,1.723,0,0,0-1.92,1.92,1.723,1.723,0,0,0,1.92,1.92H21.312a1.723,1.723,0,0,0,1.92-1.92A1.723,1.723,0,0,0,21.312-19.776Zm51.936,0H59.04a1.723,1.723,0,0,0-1.92,1.92,1.723,1.723,0,0,0,1.92,1.92H73.248a1.723,1.723,0,0,0,1.92-1.92A1.723,1.723,0,0,0,73.248-19.776Zm-1.44,5.28H8.544a1.723,1.723,0,0,0-1.92,1.92,1.723,1.723,0,0,0,1.92,1.92H71.808a1.723,1.723,0,0,0,1.92-1.92A1.723,1.723,0,0,0,71.808-14.5Zm-2.976,5.28H11.616A1.723,1.723,0,0,0,9.7-7.3a1.723,1.723,0,0,0,1.92,1.92H68.832a1.723,1.723,0,0,0,1.92-1.92A1.723,1.723,0,0,0,68.832-9.216Zm-7.2,5.28H18.816a1.723,1.723,0,0,0-1.92,1.92A1.723,1.723,0,0,0,18.816-.1H61.632a1.723,1.723,0,0,0,1.92-1.92A1.723,1.723,0,0,0,61.632-3.936Z" transform="translate(5908.752 5009.331)" fill="#fff"/>
    <path id="Path_8" data-name="Path 8" d="M23.712-67.3H7.968a1.723,1.723,0,0,0-1.92,1.92,1.723,1.723,0,0,0,1.92,1.92H23.712a1.723,1.723,0,0,0,1.92-1.92A1.723,1.723,0,0,0,23.712-67.3Zm44.256,1.92a1.723,1.723,0,0,0,1.92,1.92H85.632a1.723,1.723,0,0,0,1.92-1.92,1.723,1.723,0,0,0-1.92-1.92H69.888A1.723,1.723,0,0,0,67.968-65.376Zm-41.184,3.36H7.968a1.723,1.723,0,0,0-1.92,1.92,1.723,1.723,0,0,0,1.92,1.92H26.784A1.723,1.723,0,0,0,28.7-60.1,1.723,1.723,0,0,0,26.784-62.016Zm40.032,3.84H85.632a1.723,1.723,0,0,0,1.92-1.92,1.723,1.723,0,0,0-1.92-1.92H66.816A1.723,1.723,0,0,0,64.9-60.1,1.723,1.723,0,0,0,66.816-58.176Zm-36.864,1.44H7.968a1.723,1.723,0,0,0-1.92,1.92,1.723,1.723,0,0,0,1.92,1.92H29.952a1.723,1.723,0,0,0,1.92-1.92A1.723,1.723,0,0,0,29.952-56.736Zm33.7,3.84H85.632a1.723,1.723,0,0,0,1.92-1.92,1.723,1.723,0,0,0-1.92-1.92H63.648a1.723,1.723,0,0,0-1.92,1.92A1.723,1.723,0,0,0,63.648-52.9ZM33.12-51.456H7.968a1.723,1.723,0,0,0-1.92,1.92,1.723,1.723,0,0,0,1.92,1.92H33.12a1.723,1.723,0,0,0,1.92-1.92A1.723,1.723,0,0,0,33.12-51.456Zm27.456,3.84H85.632a1.723,1.723,0,0,0,1.92-1.92,1.723,1.723,0,0,0-1.92-1.92H60.576a1.723,1.723,0,0,0-1.92,1.92A1.723,1.723,0,0,0,60.576-47.616Zm-24.288,1.44H7.968a1.723,1.723,0,0,0-1.92,1.92,1.723,1.723,0,0,0,1.92,1.92h28.32a1.723,1.723,0,0,0,1.92-1.92A1.723,1.723,0,0,0,36.288-46.176Zm21.12,3.84H85.632a1.723,1.723,0,0,0,1.92-1.92,1.723,1.723,0,0,0-1.92-1.92H57.408a1.723,1.723,0,0,0-1.92,1.92A1.723,1.723,0,0,0,57.408-42.336ZM39.36-40.9H7.968a1.723,1.723,0,0,0-1.92,1.92,1.723,1.723,0,0,0,1.92,1.92H39.36a1.723,1.723,0,0,0,1.92-1.92A1.723,1.723,0,0,0,39.36-40.9Zm46.272,0H54.24a1.723,1.723,0,0,0-1.92,1.92,1.723,1.723,0,0,0,1.92,1.92H85.632a1.723,1.723,0,0,0,1.92-1.92A1.723,1.723,0,0,0,85.632-40.9ZM7.968-31.776H21.12a1.723,1.723,0,0,0,1.92-1.92,1.723,1.723,0,0,0-1.92-1.92H7.968a1.723,1.723,0,0,0-1.92,1.92A1.723,1.723,0,0,0,7.968-31.776Zm34.56-3.84H28.32A1.723,1.723,0,0,0,26.4-33.7a1.723,1.723,0,0,0,1.92,1.92H42.528a1.723,1.723,0,0,0,1.92-1.92A1.723,1.723,0,0,0,42.528-35.616Zm8.64,3.84H65.184A1.723,1.723,0,0,0,67.1-33.7a1.723,1.723,0,0,0-1.92-1.92H51.168a1.723,1.723,0,0,0-1.92,1.92A1.723,1.723,0,0,0,51.168-31.776Zm21.312,0H85.632a1.723,1.723,0,0,0,1.92-1.92,1.723,1.723,0,0,0-1.92-1.92H72.48a1.723,1.723,0,0,0-1.92,1.92A1.723,1.723,0,0,0,72.48-31.776ZM7.968-26.5H21.12a1.723,1.723,0,0,0,1.92-1.92,1.723,1.723,0,0,0-1.92-1.92H7.968a1.723,1.723,0,0,0-1.92,1.92A1.723,1.723,0,0,0,7.968-26.5Zm23.52,0H62.016a1.723,1.723,0,0,0,1.92-1.92,1.723,1.723,0,0,0-1.92-1.92H31.488a1.723,1.723,0,0,0-1.92,1.92A1.723,1.723,0,0,0,31.488-26.5Zm40.992,0H85.632a1.723,1.723,0,0,0,1.92-1.92,1.723,1.723,0,0,0-1.92-1.92H72.48a1.723,1.723,0,0,0-1.92,1.92A1.723,1.723,0,0,0,72.48-26.5ZM7.968-21.216H21.12a1.723,1.723,0,0,0,1.92-1.92,1.723,1.723,0,0,0-1.92-1.92H7.968a1.723,1.723,0,0,0-1.92,1.92A1.723,1.723,0,0,0,7.968-21.216Zm26.688,0h24.1a1.723,1.723,0,0,0,1.92-1.92,1.723,1.723,0,0,0-1.92-1.92h-24.1a1.723,1.723,0,0,0-1.92,1.92A1.723,1.723,0,0,0,34.656-21.216Zm37.824,0H85.632a1.723,1.723,0,0,0,1.92-1.92,1.723,1.723,0,0,0-1.92-1.92H72.48a1.723,1.723,0,0,0-1.92,1.92A1.723,1.723,0,0,0,72.48-21.216ZM7.968-15.936H21.12a1.723,1.723,0,0,0,1.92-1.92,1.723,1.723,0,0,0-1.92-1.92H7.968a1.723,1.723,0,0,0-1.92,1.92A1.723,1.723,0,0,0,7.968-15.936Zm29.952,0H55.584a1.723,1.723,0,0,0,1.92-1.92,1.723,1.723,0,0,0-1.92-1.92H37.92A1.723,1.723,0,0,0,36-17.856,1.723,1.723,0,0,0,37.92-15.936Zm34.56,0H85.632a1.723,1.723,0,0,0,1.92-1.92,1.723,1.723,0,0,0-1.92-1.92H72.48a1.723,1.723,0,0,0-1.92,1.92A1.723,1.723,0,0,0,72.48-15.936ZM7.968-10.656H21.12a1.723,1.723,0,0,0,1.92-1.92,1.723,1.723,0,0,0-1.92-1.92H7.968a1.723,1.723,0,0,0-1.92,1.92A1.723,1.723,0,0,0,7.968-10.656Zm33.12,0H52.416a1.723,1.723,0,0,0,1.92-1.92,1.723,1.723,0,0,0-1.92-1.92H41.088a1.723,1.723,0,0,0-1.92,1.92A1.723,1.723,0,0,0,41.088-10.656Zm31.392,0H85.632a1.723,1.723,0,0,0,1.92-1.92,1.723,1.723,0,0,0-1.92-1.92H72.48a1.723,1.723,0,0,0-1.92,1.92A1.723,1.723,0,0,0,72.48-10.656ZM7.968-5.376H21.12A1.723,1.723,0,0,0,23.04-7.3a1.723,1.723,0,0,0-1.92-1.92H7.968A1.723,1.723,0,0,0,6.048-7.3,1.723,1.723,0,0,0,7.968-5.376Zm64.512,0H85.632a1.723,1.723,0,0,0,1.92-1.92,1.723,1.723,0,0,0-1.92-1.92H72.48A1.723,1.723,0,0,0,70.56-7.3,1.723,1.723,0,0,0,72.48-5.376ZM7.968-.1H21.12a1.723,1.723,0,0,0,1.92-1.92,1.723,1.723,0,0,0-1.92-1.92H7.968a1.723,1.723,0,0,0-1.92,1.92A1.723,1.723,0,0,0,7.968-.1ZM72.48-.1H85.632a1.723,1.723,0,0,0,1.92-1.92,1.723,1.723,0,0,0-1.92-1.92H72.48a1.723,1.723,0,0,0-1.92,1.92A1.723,1.723,0,0,0,72.48-.1Z" transform="translate(5986.226 5009.331)" fill="#fff"/>
  </g>
</svg>
