<?xml version="1.0" encoding="UTF-8" standalone="no"?>
<!DOCTYPE svg PUBLIC "-//W3C//DTD SVG 1.1//EN" "http://www.w3.org/Graphics/SVG/1.1/DTD/svg11.dtd">
<svg width="100%" height="100%" viewBox="0 0 530 68" version="1.1" xmlns="http://www.w3.org/2000/svg" xmlns:xlink="http://www.w3.org/1999/xlink" xml:space="preserve" xmlns:serif="http://www.serif.com/" style="fill-rule:evenodd;clip-rule:evenodd;stroke-linejoin:round;stroke-miterlimit:2;">
    <g transform="matrix(1,0,0,1,-1586.46,-486.592)">
        <g transform="matrix(0.959095,0,0,0.956772,81.9172,19.4526)">
            <g transform="matrix(28.8182,0,0,28.8882,-4212.46,-4677.08)">
                <g transform="matrix(3.4733,0,0,3.4733,200.389,181.239)">
                    <path d="M0.22,-0.701L0.083,-0.701C0.07,-0.701 0.063,-0.694 0.063,-0.681C0.063,-0.668 0.07,-0.661 0.083,-0.661L0.22,-0.661C0.233,-0.661 0.24,-0.668 0.24,-0.681C0.24,-0.694 0.233,-0.701 0.22,-0.701ZM0.22,-0.646L0.083,-0.646C0.07,-0.646 0.063,-0.639 0.063,-0.626C0.063,-0.613 0.07,-0.606 0.083,-0.606L0.22,-0.606C0.233,-0.606 0.24,-0.613 0.24,-0.626C0.24,-0.639 0.233,-0.646 0.22,-0.646ZM0.22,-0.591L0.083,-0.591C0.07,-0.591 0.063,-0.584 0.063,-0.571C0.063,-0.558 0.07,-0.551 0.083,-0.551L0.22,-0.551C0.233,-0.551 0.24,-0.558 0.24,-0.571C0.24,-0.584 0.233,-0.591 0.22,-0.591ZM0.22,-0.536L0.083,-0.536C0.07,-0.536 0.063,-0.529 0.063,-0.516C0.063,-0.503 0.07,-0.496 0.083,-0.496L0.22,-0.496C0.233,-0.496 0.24,-0.503 0.24,-0.516C0.24,-0.529 0.233,-0.536 0.22,-0.536ZM0.22,-0.481L0.083,-0.481C0.07,-0.481 0.063,-0.474 0.063,-0.461C0.063,-0.448 0.07,-0.441 0.083,-0.441L0.22,-0.441C0.233,-0.441 0.24,-0.448 0.24,-0.461C0.24,-0.474 0.233,-0.481 0.22,-0.481ZM0.22,-0.426L0.083,-0.426C0.07,-0.426 0.063,-0.419 0.063,-0.406C0.063,-0.393 0.07,-0.386 0.083,-0.386L0.22,-0.386C0.233,-0.386 0.24,-0.393 0.24,-0.406C0.24,-0.419 0.233,-0.426 0.22,-0.426ZM0.22,-0.371L0.083,-0.371C0.07,-0.371 0.063,-0.364 0.063,-0.351C0.063,-0.338 0.07,-0.331 0.083,-0.331L0.22,-0.331C0.233,-0.331 0.24,-0.338 0.24,-0.351C0.24,-0.364 0.233,-0.371 0.22,-0.371ZM0.22,-0.316L0.083,-0.316C0.07,-0.316 0.063,-0.309 0.063,-0.296C0.063,-0.283 0.07,-0.276 0.083,-0.276L0.22,-0.276C0.233,-0.276 0.24,-0.283 0.24,-0.296C0.24,-0.309 0.233,-0.316 0.22,-0.316ZM0.22,-0.261L0.083,-0.261C0.07,-0.261 0.063,-0.254 0.063,-0.241C0.063,-0.228 0.07,-0.221 0.083,-0.221L0.22,-0.221C0.233,-0.221 0.24,-0.228 0.24,-0.241C0.24,-0.254 0.233,-0.261 0.22,-0.261ZM0.22,-0.206L0.083,-0.206C0.07,-0.206 0.063,-0.199 0.063,-0.186C0.063,-0.173 0.07,-0.166 0.083,-0.166L0.22,-0.166C0.233,-0.166 0.24,-0.173 0.24,-0.186C0.24,-0.199 0.233,-0.206 0.22,-0.206ZM0.22,-0.151L0.083,-0.151C0.07,-0.151 0.063,-0.144 0.063,-0.131C0.063,-0.118 0.07,-0.111 0.083,-0.111L0.22,-0.111C0.233,-0.111 0.24,-0.118 0.24,-0.131C0.24,-0.144 0.233,-0.151 0.22,-0.151ZM0.22,-0.096L0.083,-0.096C0.07,-0.096 0.063,-0.089 0.063,-0.076C0.063,-0.063 0.07,-0.056 0.083,-0.056L0.22,-0.056C0.233,-0.056 0.24,-0.063 0.24,-0.076C0.24,-0.089 0.233,-0.096 0.22,-0.096ZM0.22,-0.041L0.083,-0.041C0.07,-0.041 0.063,-0.034 0.063,-0.021C0.063,-0.008 0.07,-0.001 0.083,-0.001L0.22,-0.001C0.233,-0.001 0.24,-0.008 0.24,-0.021C0.24,-0.034 0.233,-0.041 0.22,-0.041Z" style="fill-rule:nonzero;"/>
                </g>
                <g transform="matrix(3.4733,0,0,3.4733,201.337,181.239)">
                    <path d="M0.224,-0.701L0.083,-0.701C0.07,-0.701 0.063,-0.694 0.063,-0.681C0.063,-0.668 0.07,-0.661 0.083,-0.661L0.224,-0.661C0.237,-0.661 0.244,-0.668 0.244,-0.681C0.244,-0.694 0.237,-0.701 0.224,-0.701ZM0.728,-0.701L0.59,-0.701C0.577,-0.701 0.57,-0.694 0.57,-0.681C0.57,-0.668 0.577,-0.661 0.59,-0.661L0.728,-0.661C0.741,-0.661 0.748,-0.668 0.748,-0.681C0.748,-0.694 0.741,-0.701 0.728,-0.701ZM0.267,-0.646L0.083,-0.646C0.07,-0.646 0.063,-0.639 0.063,-0.626C0.063,-0.613 0.07,-0.606 0.083,-0.606L0.267,-0.606C0.28,-0.606 0.287,-0.613 0.287,-0.626C0.287,-0.639 0.28,-0.646 0.267,-0.646ZM0.728,-0.646L0.59,-0.646C0.577,-0.646 0.57,-0.639 0.57,-0.626C0.57,-0.613 0.577,-0.606 0.59,-0.606L0.728,-0.606C0.741,-0.606 0.748,-0.613 0.748,-0.626C0.748,-0.639 0.741,-0.646 0.728,-0.646ZM0.31,-0.591L0.083,-0.591C0.07,-0.591 0.063,-0.584 0.063,-0.571C0.063,-0.558 0.07,-0.551 0.083,-0.551L0.31,-0.551C0.323,-0.551 0.33,-0.558 0.33,-0.571C0.33,-0.584 0.323,-0.591 0.31,-0.591ZM0.728,-0.591L0.59,-0.591C0.577,-0.591 0.57,-0.584 0.57,-0.571C0.57,-0.558 0.577,-0.551 0.59,-0.551L0.728,-0.551C0.741,-0.551 0.748,-0.558 0.748,-0.571C0.748,-0.584 0.741,-0.591 0.728,-0.591ZM0.353,-0.536L0.083,-0.536C0.07,-0.536 0.063,-0.529 0.063,-0.516C0.063,-0.503 0.07,-0.496 0.083,-0.496L0.353,-0.496C0.366,-0.496 0.373,-0.503 0.373,-0.516C0.373,-0.529 0.366,-0.536 0.353,-0.536ZM0.728,-0.536L0.59,-0.536C0.577,-0.536 0.57,-0.529 0.57,-0.516C0.57,-0.503 0.577,-0.496 0.59,-0.496L0.728,-0.496C0.741,-0.496 0.748,-0.503 0.748,-0.516C0.748,-0.529 0.741,-0.536 0.728,-0.536ZM0.396,-0.481L0.083,-0.481C0.07,-0.481 0.063,-0.474 0.063,-0.461C0.063,-0.448 0.07,-0.441 0.083,-0.441L0.396,-0.441C0.409,-0.441 0.416,-0.448 0.416,-0.461C0.416,-0.474 0.409,-0.481 0.396,-0.481ZM0.728,-0.481L0.59,-0.481C0.577,-0.481 0.57,-0.474 0.57,-0.461C0.57,-0.448 0.577,-0.441 0.59,-0.441L0.728,-0.441C0.741,-0.441 0.748,-0.448 0.748,-0.461C0.748,-0.474 0.741,-0.481 0.728,-0.481ZM0.221,-0.426L0.083,-0.426C0.07,-0.426 0.063,-0.419 0.063,-0.406C0.063,-0.393 0.07,-0.386 0.083,-0.386L0.221,-0.386C0.234,-0.386 0.241,-0.393 0.241,-0.406C0.241,-0.419 0.234,-0.426 0.221,-0.426ZM0.439,-0.426L0.286,-0.426C0.273,-0.426 0.266,-0.419 0.266,-0.406C0.266,-0.393 0.273,-0.386 0.286,-0.386L0.439,-0.386C0.452,-0.386 0.459,-0.393 0.459,-0.406C0.459,-0.419 0.452,-0.426 0.439,-0.426ZM0.728,-0.426L0.59,-0.426C0.577,-0.426 0.57,-0.419 0.57,-0.406C0.57,-0.393 0.577,-0.386 0.59,-0.386L0.728,-0.386C0.741,-0.386 0.748,-0.393 0.748,-0.406C0.748,-0.419 0.741,-0.426 0.728,-0.426ZM0.221,-0.371L0.083,-0.371C0.07,-0.371 0.063,-0.364 0.063,-0.351C0.063,-0.338 0.07,-0.331 0.083,-0.331L0.221,-0.331C0.234,-0.331 0.241,-0.338 0.241,-0.351C0.241,-0.364 0.234,-0.371 0.221,-0.371ZM0.482,-0.371L0.329,-0.371C0.316,-0.371 0.309,-0.364 0.309,-0.351C0.309,-0.338 0.316,-0.331 0.329,-0.331L0.482,-0.331C0.495,-0.331 0.502,-0.338 0.502,-0.351C0.502,-0.364 0.495,-0.371 0.482,-0.371ZM0.728,-0.371L0.59,-0.371C0.577,-0.371 0.57,-0.364 0.57,-0.351C0.57,-0.338 0.577,-0.331 0.59,-0.331L0.728,-0.331C0.741,-0.331 0.748,-0.338 0.748,-0.351C0.748,-0.364 0.741,-0.371 0.728,-0.371ZM0.221,-0.316L0.083,-0.316C0.07,-0.316 0.063,-0.309 0.063,-0.296C0.063,-0.283 0.07,-0.276 0.083,-0.276L0.221,-0.276C0.234,-0.276 0.241,-0.283 0.241,-0.296C0.241,-0.309 0.234,-0.316 0.221,-0.316ZM0.525,-0.316L0.372,-0.316C0.359,-0.316 0.352,-0.309 0.352,-0.296C0.352,-0.283 0.359,-0.276 0.372,-0.276L0.525,-0.276C0.538,-0.276 0.545,-0.283 0.545,-0.296C0.545,-0.309 0.538,-0.316 0.525,-0.316ZM0.728,-0.316L0.59,-0.316C0.577,-0.316 0.57,-0.309 0.57,-0.296C0.57,-0.283 0.577,-0.276 0.59,-0.276L0.728,-0.276C0.741,-0.276 0.748,-0.283 0.748,-0.296C0.748,-0.309 0.741,-0.316 0.728,-0.316ZM0.221,-0.261L0.083,-0.261C0.07,-0.261 0.063,-0.254 0.063,-0.241C0.063,-0.228 0.07,-0.221 0.083,-0.221L0.221,-0.221C0.234,-0.221 0.241,-0.228 0.241,-0.241C0.241,-0.254 0.234,-0.261 0.221,-0.261ZM0.728,-0.261L0.415,-0.261C0.402,-0.261 0.395,-0.254 0.395,-0.241C0.395,-0.228 0.402,-0.221 0.415,-0.221L0.728,-0.221C0.741,-0.221 0.748,-0.228 0.748,-0.241C0.748,-0.254 0.741,-0.261 0.728,-0.261ZM0.221,-0.206L0.083,-0.206C0.07,-0.206 0.063,-0.199 0.063,-0.186C0.063,-0.173 0.07,-0.166 0.083,-0.166L0.221,-0.166C0.234,-0.166 0.241,-0.173 0.241,-0.186C0.241,-0.199 0.234,-0.206 0.221,-0.206ZM0.728,-0.206L0.459,-0.206C0.446,-0.206 0.439,-0.199 0.439,-0.186C0.439,-0.173 0.446,-0.166 0.459,-0.166L0.728,-0.166C0.741,-0.166 0.748,-0.173 0.748,-0.186C0.748,-0.199 0.741,-0.206 0.728,-0.206ZM0.221,-0.151L0.083,-0.151C0.07,-0.151 0.063,-0.144 0.063,-0.131C0.063,-0.118 0.07,-0.111 0.083,-0.111L0.221,-0.111C0.234,-0.111 0.241,-0.118 0.241,-0.131C0.241,-0.144 0.234,-0.151 0.221,-0.151ZM0.728,-0.151L0.502,-0.151C0.489,-0.151 0.482,-0.144 0.482,-0.131C0.482,-0.118 0.489,-0.111 0.502,-0.111L0.728,-0.111C0.741,-0.111 0.748,-0.118 0.748,-0.131C0.748,-0.144 0.741,-0.151 0.728,-0.151ZM0.221,-0.096L0.083,-0.096C0.07,-0.096 0.063,-0.089 0.063,-0.076C0.063,-0.063 0.07,-0.056 0.083,-0.056L0.221,-0.056C0.234,-0.056 0.241,-0.063 0.241,-0.076C0.241,-0.089 0.234,-0.096 0.221,-0.096ZM0.728,-0.096L0.545,-0.096C0.532,-0.096 0.525,-0.089 0.525,-0.076C0.525,-0.063 0.532,-0.056 0.545,-0.056L0.728,-0.056C0.741,-0.056 0.748,-0.063 0.748,-0.076C0.748,-0.089 0.741,-0.096 0.728,-0.096ZM0.221,-0.041L0.083,-0.041C0.07,-0.041 0.063,-0.034 0.063,-0.021C0.063,-0.008 0.07,-0.001 0.083,-0.001L0.221,-0.001C0.234,-0.001 0.241,-0.008 0.241,-0.021C0.241,-0.034 0.234,-0.041 0.221,-0.041ZM0.728,-0.041L0.588,-0.041C0.575,-0.041 0.568,-0.034 0.568,-0.021C0.568,-0.008 0.575,-0.001 0.588,-0.001L0.728,-0.001C0.741,-0.001 0.748,-0.008 0.748,-0.021C0.748,-0.034 0.741,-0.041 0.728,-0.041Z" style="fill-rule:nonzero;"/>
                </g>
                <g transform="matrix(3.4733,0,0,3.4733,204.05,181.239)">
                    <path d="M0.618,-0.701L0.037,-0.701C0.024,-0.701 0.017,-0.694 0.017,-0.681C0.017,-0.668 0.024,-0.661 0.037,-0.661L0.618,-0.661C0.631,-0.661 0.638,-0.668 0.638,-0.681C0.638,-0.694 0.631,-0.701 0.618,-0.701ZM0.618,-0.646L0.037,-0.646C0.024,-0.646 0.017,-0.639 0.017,-0.626C0.017,-0.613 0.024,-0.606 0.037,-0.606L0.618,-0.606C0.631,-0.606 0.638,-0.613 0.638,-0.626C0.638,-0.639 0.631,-0.646 0.618,-0.646ZM0.618,-0.591L0.037,-0.591C0.024,-0.591 0.017,-0.584 0.017,-0.571C0.017,-0.558 0.024,-0.551 0.037,-0.551L0.618,-0.551C0.631,-0.551 0.638,-0.558 0.638,-0.571C0.638,-0.584 0.631,-0.591 0.618,-0.591ZM0.397,-0.536L0.258,-0.536C0.245,-0.536 0.238,-0.529 0.238,-0.516C0.238,-0.503 0.245,-0.496 0.258,-0.496L0.397,-0.496C0.41,-0.496 0.417,-0.503 0.417,-0.516C0.417,-0.529 0.41,-0.536 0.397,-0.536ZM0.397,-0.481L0.258,-0.481C0.245,-0.481 0.238,-0.474 0.238,-0.461C0.238,-0.448 0.245,-0.441 0.258,-0.441L0.397,-0.441C0.41,-0.441 0.417,-0.448 0.417,-0.461C0.417,-0.474 0.41,-0.481 0.397,-0.481ZM0.397,-0.426L0.258,-0.426C0.245,-0.426 0.238,-0.419 0.238,-0.406C0.238,-0.393 0.245,-0.386 0.258,-0.386L0.397,-0.386C0.41,-0.386 0.417,-0.393 0.417,-0.406C0.417,-0.419 0.41,-0.426 0.397,-0.426ZM0.397,-0.371L0.258,-0.371C0.245,-0.371 0.238,-0.364 0.238,-0.351C0.238,-0.338 0.245,-0.331 0.258,-0.331L0.397,-0.331C0.41,-0.331 0.417,-0.338 0.417,-0.351C0.417,-0.364 0.41,-0.371 0.397,-0.371ZM0.397,-0.316L0.258,-0.316C0.245,-0.316 0.238,-0.309 0.238,-0.296C0.238,-0.283 0.245,-0.276 0.258,-0.276L0.397,-0.276C0.41,-0.276 0.417,-0.283 0.417,-0.296C0.417,-0.309 0.41,-0.316 0.397,-0.316ZM0.397,-0.261L0.258,-0.261C0.245,-0.261 0.238,-0.254 0.238,-0.241C0.238,-0.228 0.245,-0.221 0.258,-0.221L0.397,-0.221C0.41,-0.221 0.417,-0.228 0.417,-0.241C0.417,-0.254 0.41,-0.261 0.397,-0.261ZM0.397,-0.206L0.258,-0.206C0.245,-0.206 0.238,-0.199 0.238,-0.186C0.238,-0.173 0.245,-0.166 0.258,-0.166L0.397,-0.166C0.41,-0.166 0.417,-0.173 0.417,-0.186C0.417,-0.199 0.41,-0.206 0.397,-0.206ZM0.397,-0.151L0.258,-0.151C0.245,-0.151 0.238,-0.144 0.238,-0.131C0.238,-0.118 0.245,-0.111 0.258,-0.111L0.397,-0.111C0.41,-0.111 0.417,-0.118 0.417,-0.131C0.417,-0.144 0.41,-0.151 0.397,-0.151ZM0.397,-0.096L0.258,-0.096C0.245,-0.096 0.238,-0.089 0.238,-0.076C0.238,-0.063 0.245,-0.056 0.258,-0.056L0.397,-0.056C0.41,-0.056 0.417,-0.063 0.417,-0.076C0.417,-0.089 0.41,-0.096 0.397,-0.096ZM0.397,-0.041L0.258,-0.041C0.245,-0.041 0.238,-0.034 0.238,-0.021C0.238,-0.008 0.245,-0.001 0.258,-0.001L0.397,-0.001C0.41,-0.001 0.417,-0.008 0.417,-0.021C0.417,-0.034 0.41,-0.041 0.397,-0.041Z" style="fill-rule:nonzero;"/>
                </g>
                <g transform="matrix(3.4733,0,0,3.4733,206.221,181.239)">
                    <path d="M0.64,-0.701L0.083,-0.701C0.07,-0.701 0.063,-0.694 0.063,-0.681C0.063,-0.668 0.07,-0.661 0.083,-0.661L0.64,-0.661C0.653,-0.661 0.66,-0.668 0.66,-0.681C0.66,-0.694 0.653,-0.701 0.64,-0.701ZM0.64,-0.646L0.083,-0.646C0.07,-0.646 0.063,-0.639 0.063,-0.626C0.063,-0.613 0.07,-0.606 0.083,-0.606L0.64,-0.606C0.653,-0.606 0.66,-0.613 0.66,-0.626C0.66,-0.639 0.653,-0.646 0.64,-0.646ZM0.64,-0.591L0.083,-0.591C0.07,-0.591 0.063,-0.584 0.063,-0.571C0.063,-0.558 0.07,-0.551 0.083,-0.551L0.64,-0.551C0.653,-0.551 0.66,-0.558 0.66,-0.571C0.66,-0.584 0.653,-0.591 0.64,-0.591ZM0.22,-0.536L0.083,-0.536C0.07,-0.536 0.063,-0.529 0.063,-0.516C0.063,-0.503 0.07,-0.496 0.083,-0.496L0.22,-0.496C0.233,-0.496 0.24,-0.503 0.24,-0.516C0.24,-0.529 0.233,-0.536 0.22,-0.536ZM0.22,-0.481L0.083,-0.481C0.07,-0.481 0.063,-0.474 0.063,-0.461C0.063,-0.448 0.07,-0.441 0.083,-0.441L0.22,-0.441C0.233,-0.441 0.24,-0.448 0.24,-0.461C0.24,-0.474 0.233,-0.481 0.22,-0.481ZM0.487,-0.426L0.083,-0.426C0.07,-0.426 0.063,-0.419 0.063,-0.406C0.063,-0.393 0.07,-0.386 0.083,-0.386L0.487,-0.386C0.5,-0.386 0.507,-0.393 0.507,-0.406C0.507,-0.419 0.5,-0.426 0.487,-0.426ZM0.487,-0.371L0.083,-0.371C0.07,-0.371 0.063,-0.364 0.063,-0.351C0.063,-0.338 0.07,-0.331 0.083,-0.331L0.487,-0.331C0.5,-0.331 0.507,-0.338 0.507,-0.351C0.507,-0.364 0.5,-0.371 0.487,-0.371ZM0.487,-0.316L0.083,-0.316C0.07,-0.316 0.063,-0.309 0.063,-0.296C0.063,-0.283 0.07,-0.276 0.083,-0.276L0.487,-0.276C0.5,-0.276 0.507,-0.283 0.507,-0.296C0.507,-0.309 0.5,-0.316 0.487,-0.316ZM0.22,-0.261L0.083,-0.261C0.07,-0.261 0.063,-0.254 0.063,-0.241C0.063,-0.228 0.07,-0.221 0.083,-0.221L0.22,-0.221C0.233,-0.221 0.24,-0.228 0.24,-0.241C0.24,-0.254 0.233,-0.261 0.22,-0.261ZM0.22,-0.206L0.083,-0.206C0.07,-0.206 0.063,-0.199 0.063,-0.186C0.063,-0.173 0.07,-0.166 0.083,-0.166L0.22,-0.166C0.233,-0.166 0.24,-0.173 0.24,-0.186C0.24,-0.199 0.233,-0.206 0.22,-0.206ZM0.64,-0.151L0.083,-0.151C0.07,-0.151 0.063,-0.144 0.063,-0.131C0.063,-0.118 0.07,-0.111 0.083,-0.111L0.64,-0.111C0.653,-0.111 0.66,-0.118 0.66,-0.131C0.66,-0.144 0.653,-0.151 0.64,-0.151ZM0.64,-0.096L0.083,-0.096C0.07,-0.096 0.063,-0.089 0.063,-0.076C0.063,-0.063 0.07,-0.056 0.083,-0.056L0.64,-0.056C0.653,-0.056 0.66,-0.063 0.66,-0.076C0.66,-0.089 0.653,-0.096 0.64,-0.096ZM0.64,-0.041L0.083,-0.041C0.07,-0.041 0.063,-0.034 0.063,-0.021C0.063,-0.008 0.07,-0.001 0.083,-0.001L0.64,-0.001C0.653,-0.001 0.66,-0.008 0.66,-0.021C0.66,-0.034 0.653,-0.041 0.64,-0.041Z" style="fill-rule:nonzero;"/>
                </g>
                <g transform="matrix(3.4733,0,0,3.4733,208.538,181.239)">
                    <path d="M0.59,-0.701L0.083,-0.701C0.07,-0.701 0.063,-0.694 0.063,-0.681C0.063,-0.668 0.07,-0.661 0.083,-0.661L0.59,-0.661C0.603,-0.661 0.61,-0.668 0.61,-0.681C0.61,-0.694 0.603,-0.701 0.59,-0.701ZM0.66,-0.646L0.083,-0.646C0.07,-0.646 0.063,-0.639 0.063,-0.626C0.063,-0.613 0.07,-0.606 0.083,-0.606L0.66,-0.606C0.673,-0.606 0.68,-0.613 0.68,-0.626C0.68,-0.639 0.673,-0.646 0.66,-0.646ZM0.691,-0.591L0.083,-0.591C0.07,-0.591 0.063,-0.584 0.063,-0.571C0.063,-0.558 0.07,-0.551 0.083,-0.551L0.691,-0.551C0.704,-0.551 0.711,-0.558 0.711,-0.571C0.711,-0.584 0.704,-0.591 0.691,-0.591ZM0.221,-0.536L0.083,-0.536C0.07,-0.536 0.063,-0.529 0.063,-0.516C0.063,-0.503 0.07,-0.496 0.083,-0.496L0.221,-0.496C0.234,-0.496 0.241,-0.503 0.241,-0.516C0.241,-0.529 0.234,-0.536 0.221,-0.536ZM0.707,-0.536L0.545,-0.536C0.532,-0.536 0.525,-0.529 0.525,-0.516C0.525,-0.503 0.532,-0.496 0.545,-0.496L0.707,-0.496C0.72,-0.496 0.727,-0.503 0.727,-0.516C0.727,-0.529 0.72,-0.536 0.707,-0.536ZM0.221,-0.481L0.083,-0.481C0.07,-0.481 0.063,-0.474 0.063,-0.461C0.063,-0.448 0.07,-0.441 0.083,-0.441L0.221,-0.441C0.234,-0.441 0.241,-0.448 0.241,-0.461C0.241,-0.474 0.234,-0.481 0.221,-0.481ZM0.712,-0.481L0.573,-0.481C0.56,-0.481 0.553,-0.474 0.553,-0.461C0.553,-0.448 0.56,-0.441 0.573,-0.441L0.712,-0.441C0.725,-0.441 0.732,-0.448 0.732,-0.461C0.732,-0.474 0.725,-0.481 0.712,-0.481ZM0.221,-0.426L0.083,-0.426C0.07,-0.426 0.063,-0.419 0.063,-0.406C0.063,-0.393 0.07,-0.386 0.083,-0.386L0.221,-0.386C0.234,-0.386 0.241,-0.393 0.241,-0.406C0.241,-0.419 0.234,-0.426 0.221,-0.426ZM0.712,-0.426L0.573,-0.426C0.56,-0.426 0.553,-0.419 0.553,-0.406C0.553,-0.393 0.56,-0.386 0.573,-0.386L0.712,-0.386C0.725,-0.386 0.732,-0.393 0.732,-0.406C0.732,-0.419 0.725,-0.426 0.712,-0.426ZM0.221,-0.371L0.083,-0.371C0.07,-0.371 0.063,-0.364 0.063,-0.351C0.063,-0.338 0.07,-0.331 0.083,-0.331L0.221,-0.331C0.234,-0.331 0.241,-0.338 0.241,-0.351C0.241,-0.364 0.234,-0.371 0.221,-0.371ZM0.707,-0.371L0.545,-0.371C0.532,-0.371 0.525,-0.364 0.525,-0.351C0.525,-0.338 0.532,-0.331 0.545,-0.331L0.707,-0.331C0.72,-0.331 0.727,-0.338 0.727,-0.351C0.727,-0.364 0.72,-0.371 0.707,-0.371ZM0.691,-0.316L0.083,-0.316C0.07,-0.316 0.063,-0.309 0.063,-0.296C0.063,-0.283 0.07,-0.276 0.083,-0.276L0.691,-0.276C0.704,-0.276 0.711,-0.283 0.711,-0.296C0.711,-0.309 0.704,-0.316 0.691,-0.316ZM0.66,-0.261L0.083,-0.261C0.07,-0.261 0.063,-0.254 0.063,-0.241C0.063,-0.228 0.07,-0.221 0.083,-0.221L0.66,-0.221C0.673,-0.221 0.68,-0.228 0.68,-0.241C0.68,-0.254 0.673,-0.261 0.66,-0.261ZM0.59,-0.206L0.083,-0.206C0.07,-0.206 0.063,-0.199 0.063,-0.186C0.063,-0.173 0.07,-0.166 0.083,-0.166L0.59,-0.166C0.603,-0.166 0.61,-0.173 0.61,-0.186C0.61,-0.199 0.603,-0.206 0.59,-0.206ZM0.221,-0.151L0.083,-0.151C0.07,-0.151 0.063,-0.144 0.063,-0.131C0.063,-0.118 0.07,-0.111 0.083,-0.111L0.221,-0.111C0.234,-0.111 0.241,-0.118 0.241,-0.131C0.241,-0.144 0.234,-0.151 0.221,-0.151ZM0.623,-0.151L0.471,-0.151C0.458,-0.151 0.451,-0.144 0.451,-0.131C0.451,-0.118 0.458,-0.111 0.471,-0.111L0.623,-0.111C0.636,-0.111 0.643,-0.118 0.643,-0.131C0.643,-0.144 0.636,-0.151 0.623,-0.151ZM0.221,-0.096L0.083,-0.096C0.07,-0.096 0.063,-0.089 0.063,-0.076C0.063,-0.063 0.07,-0.056 0.083,-0.056L0.221,-0.056C0.234,-0.056 0.241,-0.063 0.241,-0.076C0.241,-0.089 0.234,-0.096 0.221,-0.096ZM0.662,-0.096L0.505,-0.096C0.492,-0.096 0.485,-0.089 0.485,-0.076C0.485,-0.063 0.492,-0.056 0.505,-0.056L0.662,-0.056C0.675,-0.056 0.682,-0.063 0.682,-0.076C0.682,-0.089 0.675,-0.096 0.662,-0.096ZM0.221,-0.041L0.083,-0.041C0.07,-0.041 0.063,-0.034 0.063,-0.021C0.063,-0.008 0.07,-0.001 0.083,-0.001L0.221,-0.001C0.234,-0.001 0.241,-0.008 0.241,-0.021C0.241,-0.034 0.234,-0.041 0.221,-0.041ZM0.539,-0.001L0.7,-0.001C0.713,-0.001 0.72,-0.008 0.72,-0.021C0.72,-0.034 0.713,-0.041 0.7,-0.041L0.539,-0.041C0.526,-0.041 0.519,-0.034 0.519,-0.021C0.519,-0.008 0.526,-0.001 0.539,-0.001Z" style="fill-rule:nonzero;"/>
                </g>
                <g transform="matrix(3.4733,0,0,3.4733,211.15,181.239)">
                    <path d="M0.602,-0.701L0.196,-0.701C0.183,-0.701 0.176,-0.694 0.176,-0.681C0.176,-0.668 0.183,-0.661 0.196,-0.661L0.602,-0.661C0.615,-0.661 0.622,-0.668 0.622,-0.681C0.622,-0.694 0.615,-0.701 0.602,-0.701ZM0.677,-0.646L0.121,-0.646C0.108,-0.646 0.101,-0.639 0.101,-0.626C0.101,-0.613 0.108,-0.606 0.121,-0.606L0.677,-0.606C0.69,-0.606 0.697,-0.613 0.697,-0.626C0.697,-0.639 0.69,-0.646 0.677,-0.646ZM0.708,-0.591L0.089,-0.591C0.076,-0.591 0.069,-0.584 0.069,-0.571C0.069,-0.558 0.076,-0.551 0.089,-0.551L0.708,-0.551C0.721,-0.551 0.728,-0.558 0.728,-0.571C0.728,-0.584 0.721,-0.591 0.708,-0.591ZM0.222,-0.536L0.074,-0.536C0.061,-0.536 0.054,-0.529 0.054,-0.516C0.054,-0.503 0.061,-0.496 0.074,-0.496L0.222,-0.496C0.235,-0.496 0.242,-0.503 0.242,-0.516C0.242,-0.529 0.235,-0.536 0.222,-0.536ZM0.723,-0.536L0.575,-0.536C0.562,-0.536 0.555,-0.529 0.555,-0.516C0.555,-0.503 0.562,-0.496 0.575,-0.496L0.723,-0.496C0.736,-0.496 0.743,-0.503 0.743,-0.516C0.743,-0.529 0.736,-0.536 0.723,-0.536ZM0.208,-0.481L0.07,-0.481C0.057,-0.481 0.05,-0.474 0.05,-0.461C0.05,-0.448 0.057,-0.441 0.07,-0.441L0.208,-0.441C0.221,-0.441 0.228,-0.448 0.228,-0.461C0.228,-0.474 0.221,-0.481 0.208,-0.481ZM0.727,-0.481L0.589,-0.481C0.576,-0.481 0.569,-0.474 0.569,-0.461C0.569,-0.448 0.576,-0.441 0.589,-0.441L0.727,-0.441C0.74,-0.441 0.747,-0.448 0.747,-0.461C0.747,-0.474 0.74,-0.481 0.727,-0.481ZM0.208,-0.426L0.07,-0.426C0.057,-0.426 0.05,-0.419 0.05,-0.406C0.05,-0.393 0.057,-0.386 0.07,-0.386L0.208,-0.386C0.221,-0.386 0.228,-0.393 0.228,-0.406C0.228,-0.419 0.221,-0.426 0.208,-0.426ZM0.208,-0.371L0.07,-0.371C0.057,-0.371 0.05,-0.364 0.05,-0.351C0.05,-0.338 0.057,-0.331 0.07,-0.331L0.208,-0.331C0.221,-0.331 0.228,-0.338 0.228,-0.351C0.228,-0.364 0.221,-0.371 0.208,-0.371ZM0.208,-0.316L0.07,-0.316C0.057,-0.316 0.05,-0.309 0.05,-0.296C0.05,-0.283 0.057,-0.276 0.07,-0.276L0.208,-0.276C0.221,-0.276 0.228,-0.283 0.228,-0.296C0.228,-0.309 0.221,-0.316 0.208,-0.316ZM0.208,-0.261L0.07,-0.261C0.057,-0.261 0.05,-0.254 0.05,-0.241C0.05,-0.228 0.057,-0.221 0.07,-0.221L0.208,-0.221C0.221,-0.221 0.228,-0.228 0.228,-0.241C0.228,-0.254 0.221,-0.261 0.208,-0.261ZM0.727,-0.261L0.589,-0.261C0.576,-0.261 0.569,-0.254 0.569,-0.241C0.569,-0.228 0.576,-0.221 0.589,-0.221L0.727,-0.221C0.74,-0.221 0.747,-0.228 0.747,-0.241C0.747,-0.254 0.74,-0.261 0.727,-0.261ZM0.222,-0.206L0.074,-0.206C0.061,-0.206 0.054,-0.199 0.054,-0.186C0.054,-0.173 0.061,-0.166 0.074,-0.166L0.222,-0.166C0.235,-0.166 0.242,-0.173 0.242,-0.186C0.242,-0.199 0.235,-0.206 0.222,-0.206ZM0.723,-0.206L0.575,-0.206C0.562,-0.206 0.555,-0.199 0.555,-0.186C0.555,-0.173 0.562,-0.166 0.575,-0.166L0.723,-0.166C0.736,-0.166 0.743,-0.173 0.743,-0.186C0.743,-0.199 0.736,-0.206 0.723,-0.206ZM0.708,-0.151L0.089,-0.151C0.076,-0.151 0.069,-0.144 0.069,-0.131C0.069,-0.118 0.076,-0.111 0.089,-0.111L0.708,-0.111C0.721,-0.111 0.728,-0.118 0.728,-0.131C0.728,-0.144 0.721,-0.151 0.708,-0.151ZM0.677,-0.096L0.121,-0.096C0.108,-0.096 0.101,-0.089 0.101,-0.076C0.101,-0.063 0.108,-0.056 0.121,-0.056L0.677,-0.056C0.69,-0.056 0.697,-0.063 0.697,-0.076C0.697,-0.089 0.69,-0.096 0.677,-0.096ZM0.602,-0.041L0.196,-0.041C0.183,-0.041 0.176,-0.034 0.176,-0.021C0.176,-0.008 0.183,-0.001 0.196,-0.001L0.602,-0.001C0.615,-0.001 0.622,-0.008 0.622,-0.021C0.622,-0.034 0.615,-0.041 0.602,-0.041Z" style="fill-rule:nonzero;"/>
                </g>
                <g transform="matrix(3.4733,0,0,3.4733,213.779,181.239)">
                    <path d="M0.642,-0.701L0.196,-0.701C0.183,-0.701 0.176,-0.694 0.176,-0.681C0.176,-0.668 0.183,-0.661 0.196,-0.661L0.642,-0.661C0.655,-0.661 0.662,-0.668 0.662,-0.681C0.662,-0.694 0.655,-0.701 0.642,-0.701ZM0.717,-0.646L0.121,-0.646C0.108,-0.646 0.101,-0.639 0.101,-0.626C0.101,-0.613 0.108,-0.606 0.121,-0.606L0.717,-0.606C0.73,-0.606 0.737,-0.613 0.737,-0.626C0.737,-0.639 0.73,-0.646 0.717,-0.646ZM0.748,-0.591L0.089,-0.591C0.076,-0.591 0.069,-0.584 0.069,-0.571C0.069,-0.558 0.076,-0.551 0.089,-0.551L0.748,-0.551C0.761,-0.551 0.768,-0.558 0.768,-0.571C0.768,-0.584 0.761,-0.591 0.748,-0.591ZM0.222,-0.536L0.074,-0.536C0.061,-0.536 0.054,-0.529 0.054,-0.516C0.054,-0.503 0.061,-0.496 0.074,-0.496L0.222,-0.496C0.235,-0.496 0.242,-0.503 0.242,-0.516C0.242,-0.529 0.235,-0.536 0.222,-0.536ZM0.763,-0.536L0.615,-0.536C0.602,-0.536 0.595,-0.529 0.595,-0.516C0.595,-0.503 0.602,-0.496 0.615,-0.496L0.763,-0.496C0.776,-0.496 0.783,-0.503 0.783,-0.516C0.783,-0.529 0.776,-0.536 0.763,-0.536ZM0.208,-0.481L0.07,-0.481C0.057,-0.481 0.05,-0.474 0.05,-0.461C0.05,-0.448 0.057,-0.441 0.07,-0.441L0.208,-0.441C0.221,-0.441 0.228,-0.448 0.228,-0.461C0.228,-0.474 0.221,-0.481 0.208,-0.481ZM0.767,-0.481L0.629,-0.481C0.616,-0.481 0.609,-0.474 0.609,-0.461C0.609,-0.448 0.616,-0.441 0.629,-0.441L0.767,-0.441C0.78,-0.441 0.787,-0.448 0.787,-0.461C0.787,-0.474 0.78,-0.481 0.767,-0.481ZM0.208,-0.426L0.07,-0.426C0.057,-0.426 0.05,-0.419 0.05,-0.406C0.05,-0.393 0.057,-0.386 0.07,-0.386L0.208,-0.386C0.221,-0.386 0.228,-0.393 0.228,-0.406C0.228,-0.419 0.221,-0.426 0.208,-0.426ZM0.767,-0.426L0.629,-0.426C0.616,-0.426 0.609,-0.419 0.609,-0.406C0.609,-0.393 0.616,-0.386 0.629,-0.386L0.767,-0.386C0.78,-0.386 0.787,-0.393 0.787,-0.406C0.787,-0.419 0.78,-0.426 0.767,-0.426ZM0.208,-0.371L0.07,-0.371C0.057,-0.371 0.05,-0.364 0.05,-0.351C0.05,-0.338 0.057,-0.331 0.07,-0.331L0.208,-0.331C0.221,-0.331 0.228,-0.338 0.228,-0.351C0.228,-0.364 0.221,-0.371 0.208,-0.371ZM0.767,-0.371L0.629,-0.371C0.616,-0.371 0.609,-0.364 0.609,-0.351C0.609,-0.338 0.616,-0.331 0.629,-0.331L0.767,-0.331C0.78,-0.331 0.787,-0.338 0.787,-0.351C0.787,-0.364 0.78,-0.371 0.767,-0.371ZM0.208,-0.316L0.07,-0.316C0.057,-0.316 0.05,-0.309 0.05,-0.296C0.05,-0.283 0.057,-0.276 0.07,-0.276L0.208,-0.276C0.221,-0.276 0.228,-0.283 0.228,-0.296C0.228,-0.309 0.221,-0.316 0.208,-0.316ZM0.767,-0.316L0.629,-0.316C0.616,-0.316 0.609,-0.309 0.609,-0.296C0.609,-0.283 0.616,-0.276 0.629,-0.276L0.767,-0.276C0.78,-0.276 0.787,-0.283 0.787,-0.296C0.787,-0.309 0.78,-0.316 0.767,-0.316ZM0.208,-0.261L0.07,-0.261C0.057,-0.261 0.05,-0.254 0.05,-0.241C0.05,-0.228 0.057,-0.221 0.07,-0.221L0.208,-0.221C0.221,-0.221 0.228,-0.228 0.228,-0.241C0.228,-0.254 0.221,-0.261 0.208,-0.261ZM0.767,-0.261L0.629,-0.261C0.616,-0.261 0.609,-0.254 0.609,-0.241C0.609,-0.228 0.616,-0.221 0.629,-0.221L0.767,-0.221C0.78,-0.221 0.787,-0.228 0.787,-0.241C0.787,-0.254 0.78,-0.261 0.767,-0.261ZM0.222,-0.206L0.074,-0.206C0.061,-0.206 0.054,-0.199 0.054,-0.186C0.054,-0.173 0.061,-0.166 0.074,-0.166L0.222,-0.166C0.235,-0.166 0.242,-0.173 0.242,-0.186C0.242,-0.199 0.235,-0.206 0.222,-0.206ZM0.763,-0.206L0.615,-0.206C0.602,-0.206 0.595,-0.199 0.595,-0.186C0.595,-0.173 0.602,-0.166 0.615,-0.166L0.763,-0.166C0.776,-0.166 0.783,-0.173 0.783,-0.186C0.783,-0.199 0.776,-0.206 0.763,-0.206ZM0.748,-0.151L0.089,-0.151C0.076,-0.151 0.069,-0.144 0.069,-0.131C0.069,-0.118 0.076,-0.111 0.089,-0.111L0.748,-0.111C0.761,-0.111 0.768,-0.118 0.768,-0.131C0.768,-0.144 0.761,-0.151 0.748,-0.151ZM0.717,-0.096L0.121,-0.096C0.108,-0.096 0.101,-0.089 0.101,-0.076C0.101,-0.063 0.108,-0.056 0.121,-0.056L0.717,-0.056C0.73,-0.056 0.737,-0.063 0.737,-0.076C0.737,-0.089 0.73,-0.096 0.717,-0.096ZM0.642,-0.041L0.196,-0.041C0.183,-0.041 0.176,-0.034 0.176,-0.021C0.176,-0.008 0.183,-0.001 0.196,-0.001L0.642,-0.001C0.655,-0.001 0.662,-0.008 0.662,-0.021C0.662,-0.034 0.655,-0.041 0.642,-0.041Z" style="fill-rule:nonzero;"/>
                </g>
                <g transform="matrix(3.4733,0,0,3.4733,216.582,181.239)">
                    <path d="M0.247,-0.701L0.083,-0.701C0.07,-0.701 0.063,-0.694 0.063,-0.681C0.063,-0.668 0.07,-0.661 0.083,-0.661L0.247,-0.661C0.26,-0.661 0.267,-0.668 0.267,-0.681C0.267,-0.694 0.26,-0.701 0.247,-0.701ZM0.708,-0.681C0.708,-0.668 0.715,-0.661 0.728,-0.661L0.892,-0.661C0.905,-0.661 0.912,-0.668 0.912,-0.681C0.912,-0.694 0.905,-0.701 0.892,-0.701L0.728,-0.701C0.715,-0.701 0.708,-0.694 0.708,-0.681ZM0.279,-0.646L0.083,-0.646C0.07,-0.646 0.063,-0.639 0.063,-0.626C0.063,-0.613 0.07,-0.606 0.083,-0.606L0.279,-0.606C0.292,-0.606 0.299,-0.613 0.299,-0.626C0.299,-0.639 0.292,-0.646 0.279,-0.646ZM0.696,-0.606L0.892,-0.606C0.905,-0.606 0.912,-0.613 0.912,-0.626C0.912,-0.639 0.905,-0.646 0.892,-0.646L0.696,-0.646C0.683,-0.646 0.676,-0.639 0.676,-0.626C0.676,-0.613 0.683,-0.606 0.696,-0.606ZM0.312,-0.591L0.083,-0.591C0.07,-0.591 0.063,-0.584 0.063,-0.571C0.063,-0.558 0.07,-0.551 0.083,-0.551L0.312,-0.551C0.325,-0.551 0.332,-0.558 0.332,-0.571C0.332,-0.584 0.325,-0.591 0.312,-0.591ZM0.663,-0.551L0.892,-0.551C0.905,-0.551 0.912,-0.558 0.912,-0.571C0.912,-0.584 0.905,-0.591 0.892,-0.591L0.663,-0.591C0.65,-0.591 0.643,-0.584 0.643,-0.571C0.643,-0.558 0.65,-0.551 0.663,-0.551ZM0.345,-0.536L0.083,-0.536C0.07,-0.536 0.063,-0.529 0.063,-0.516C0.063,-0.503 0.07,-0.496 0.083,-0.496L0.345,-0.496C0.358,-0.496 0.365,-0.503 0.365,-0.516C0.365,-0.529 0.358,-0.536 0.345,-0.536ZM0.631,-0.496L0.892,-0.496C0.905,-0.496 0.912,-0.503 0.912,-0.516C0.912,-0.529 0.905,-0.536 0.892,-0.536L0.631,-0.536C0.618,-0.536 0.611,-0.529 0.611,-0.516C0.611,-0.503 0.618,-0.496 0.631,-0.496ZM0.378,-0.481L0.083,-0.481C0.07,-0.481 0.063,-0.474 0.063,-0.461C0.063,-0.448 0.07,-0.441 0.083,-0.441L0.378,-0.441C0.391,-0.441 0.398,-0.448 0.398,-0.461C0.398,-0.474 0.391,-0.481 0.378,-0.481ZM0.598,-0.441L0.892,-0.441C0.905,-0.441 0.912,-0.448 0.912,-0.461C0.912,-0.474 0.905,-0.481 0.892,-0.481L0.598,-0.481C0.585,-0.481 0.578,-0.474 0.578,-0.461C0.578,-0.448 0.585,-0.441 0.598,-0.441ZM0.41,-0.426L0.083,-0.426C0.07,-0.426 0.063,-0.419 0.063,-0.406C0.063,-0.393 0.07,-0.386 0.083,-0.386L0.41,-0.386C0.423,-0.386 0.43,-0.393 0.43,-0.406C0.43,-0.419 0.423,-0.426 0.41,-0.426ZM0.892,-0.426L0.565,-0.426C0.552,-0.426 0.545,-0.419 0.545,-0.406C0.545,-0.393 0.552,-0.386 0.565,-0.386L0.892,-0.386C0.905,-0.386 0.912,-0.393 0.912,-0.406C0.912,-0.419 0.905,-0.426 0.892,-0.426ZM0.083,-0.331L0.22,-0.331C0.233,-0.331 0.24,-0.338 0.24,-0.351C0.24,-0.364 0.233,-0.371 0.22,-0.371L0.083,-0.371C0.07,-0.371 0.063,-0.364 0.063,-0.351C0.063,-0.338 0.07,-0.331 0.083,-0.331ZM0.443,-0.371L0.295,-0.371C0.282,-0.371 0.275,-0.364 0.275,-0.351C0.275,-0.338 0.282,-0.331 0.295,-0.331L0.443,-0.331C0.456,-0.331 0.463,-0.338 0.463,-0.351C0.463,-0.364 0.456,-0.371 0.443,-0.371ZM0.533,-0.331L0.679,-0.331C0.692,-0.331 0.699,-0.338 0.699,-0.351C0.699,-0.364 0.692,-0.371 0.679,-0.371L0.533,-0.371C0.52,-0.371 0.513,-0.364 0.513,-0.351C0.513,-0.338 0.52,-0.331 0.533,-0.331ZM0.755,-0.331L0.892,-0.331C0.905,-0.331 0.912,-0.338 0.912,-0.351C0.912,-0.364 0.905,-0.371 0.892,-0.371L0.755,-0.371C0.742,-0.371 0.735,-0.364 0.735,-0.351C0.735,-0.338 0.742,-0.331 0.755,-0.331ZM0.083,-0.276L0.22,-0.276C0.233,-0.276 0.24,-0.283 0.24,-0.296C0.24,-0.309 0.233,-0.316 0.22,-0.316L0.083,-0.316C0.07,-0.316 0.063,-0.309 0.063,-0.296C0.063,-0.283 0.07,-0.276 0.083,-0.276ZM0.328,-0.276L0.646,-0.276C0.659,-0.276 0.666,-0.283 0.666,-0.296C0.666,-0.309 0.659,-0.316 0.646,-0.316L0.328,-0.316C0.315,-0.316 0.308,-0.309 0.308,-0.296C0.308,-0.283 0.315,-0.276 0.328,-0.276ZM0.755,-0.276L0.892,-0.276C0.905,-0.276 0.912,-0.283 0.912,-0.296C0.912,-0.309 0.905,-0.316 0.892,-0.316L0.755,-0.316C0.742,-0.316 0.735,-0.309 0.735,-0.296C0.735,-0.283 0.742,-0.276 0.755,-0.276ZM0.083,-0.221L0.22,-0.221C0.233,-0.221 0.24,-0.228 0.24,-0.241C0.24,-0.254 0.233,-0.261 0.22,-0.261L0.083,-0.261C0.07,-0.261 0.063,-0.254 0.063,-0.241C0.063,-0.228 0.07,-0.221 0.083,-0.221ZM0.361,-0.221L0.612,-0.221C0.625,-0.221 0.632,-0.228 0.632,-0.241C0.632,-0.254 0.625,-0.261 0.612,-0.261L0.361,-0.261C0.348,-0.261 0.341,-0.254 0.341,-0.241C0.341,-0.228 0.348,-0.221 0.361,-0.221ZM0.755,-0.221L0.892,-0.221C0.905,-0.221 0.912,-0.228 0.912,-0.241C0.912,-0.254 0.905,-0.261 0.892,-0.261L0.755,-0.261C0.742,-0.261 0.735,-0.254 0.735,-0.241C0.735,-0.228 0.742,-0.221 0.755,-0.221ZM0.083,-0.166L0.22,-0.166C0.233,-0.166 0.24,-0.173 0.24,-0.186C0.24,-0.199 0.233,-0.206 0.22,-0.206L0.083,-0.206C0.07,-0.206 0.063,-0.199 0.063,-0.186C0.063,-0.173 0.07,-0.166 0.083,-0.166ZM0.395,-0.166L0.579,-0.166C0.592,-0.166 0.599,-0.173 0.599,-0.186C0.599,-0.199 0.592,-0.206 0.579,-0.206L0.395,-0.206C0.382,-0.206 0.375,-0.199 0.375,-0.186C0.375,-0.173 0.382,-0.166 0.395,-0.166ZM0.755,-0.166L0.892,-0.166C0.905,-0.166 0.912,-0.173 0.912,-0.186C0.912,-0.199 0.905,-0.206 0.892,-0.206L0.755,-0.206C0.742,-0.206 0.735,-0.199 0.735,-0.186C0.735,-0.173 0.742,-0.166 0.755,-0.166ZM0.083,-0.111L0.22,-0.111C0.233,-0.111 0.24,-0.118 0.24,-0.131C0.24,-0.144 0.233,-0.151 0.22,-0.151L0.083,-0.151C0.07,-0.151 0.063,-0.144 0.063,-0.131C0.063,-0.118 0.07,-0.111 0.083,-0.111ZM0.428,-0.111L0.546,-0.111C0.559,-0.111 0.566,-0.118 0.566,-0.131C0.566,-0.144 0.559,-0.151 0.546,-0.151L0.428,-0.151C0.415,-0.151 0.408,-0.144 0.408,-0.131C0.408,-0.118 0.415,-0.111 0.428,-0.111ZM0.755,-0.111L0.892,-0.111C0.905,-0.111 0.912,-0.118 0.912,-0.131C0.912,-0.144 0.905,-0.151 0.892,-0.151L0.755,-0.151C0.742,-0.151 0.735,-0.144 0.735,-0.131C0.735,-0.118 0.742,-0.111 0.755,-0.111ZM0.083,-0.056L0.22,-0.056C0.233,-0.056 0.24,-0.063 0.24,-0.076C0.24,-0.089 0.233,-0.096 0.22,-0.096L0.083,-0.096C0.07,-0.096 0.063,-0.089 0.063,-0.076C0.063,-0.063 0.07,-0.056 0.083,-0.056ZM0.755,-0.056L0.892,-0.056C0.905,-0.056 0.912,-0.063 0.912,-0.076C0.912,-0.089 0.905,-0.096 0.892,-0.096L0.755,-0.096C0.742,-0.096 0.735,-0.089 0.735,-0.076C0.735,-0.063 0.742,-0.056 0.755,-0.056ZM0.083,-0.001L0.22,-0.001C0.233,-0.001 0.24,-0.008 0.24,-0.021C0.24,-0.034 0.233,-0.041 0.22,-0.041L0.083,-0.041C0.07,-0.041 0.063,-0.034 0.063,-0.021C0.063,-0.008 0.07,-0.001 0.083,-0.001ZM0.755,-0.001L0.892,-0.001C0.905,-0.001 0.912,-0.008 0.912,-0.021C0.912,-0.034 0.905,-0.041 0.892,-0.041L0.755,-0.041C0.742,-0.041 0.735,-0.034 0.735,-0.021C0.735,-0.008 0.742,-0.001 0.755,-0.001Z" style="fill-rule:nonzero;"/>
                </g>
            </g>
        </g>
    </g>
</svg>
