<?xml version="1.0" encoding="UTF-8" standalone="no"?>
<!DOCTYPE svg PUBLIC "-//W3C//DTD SVG 1.1//EN" "http://www.w3.org/Graphics/SVG/1.1/DTD/svg11.dtd">
<svg width="100%" height="100%" viewBox="0 0 500 300" version="1.1" xmlns="http://www.w3.org/2000/svg" xmlns:xlink="http://www.w3.org/1999/xlink" xml:space="preserve" xmlns:serif="http://www.serif.com/" style="fill-rule:evenodd;clip-rule:evenodd;stroke-linejoin:round;stroke-miterlimit:2;">
    <g transform="matrix(1,0,0,1,-5300,-300)">
        <g id="msg-Tripod-DOWN" transform="matrix(0.973347,0,0,0.932343,2556.54,300)">
            <rect x="2818.58" y="-0" width="513.691" height="321.77" style="fill:rgb(39,39,42);"/>
            <g transform="matrix(1.02738,0,0,1.07257,-1599.16,-5.68434e-14)">
                <path d="M4606.56,206.562C4592.09,221.048 4572.08,230 4550,230C4527.92,230 4507.91,221.048 4493.44,206.562C4478.95,192.089 4470,172.083 4470,150C4470,127.917 4478.95,107.911 4493.44,93.438C4507.91,78.952 4527.92,70 4550,70C4572.1,70 4592.09,78.952 4606.56,93.438C4621.05,107.911 4630,127.917 4630,150C4630,172.083 4621.05,192.089 4606.56,206.562ZM4597.16,197.159C4609.24,185.092 4616.7,168.411 4616.7,150C4616.7,131.589 4609.24,114.908 4597.16,102.841C4585.09,90.764 4568.42,83.3 4550,83.3C4531.59,83.3 4514.91,90.764 4502.84,102.841C4490.76,114.908 4483.3,131.589 4483.3,150C4483.3,168.411 4490.76,185.092 4502.84,197.159C4514.91,209.236 4531.59,216.7 4550,216.7C4568.41,216.7 4585.09,209.236 4597.16,197.159Z" style="fill:rgb(113,113,122);"/>
            </g>
            <g transform="matrix(2.93538,0,0,3.06447,3027.99,111.853)">
                <path d="M25.57,29.91C25.438,29.968 25.295,29.999 25.15,30C24.76,30.001 24.404,29.774 24.24,29.42L18.51,17L17,17L17,29C17,29.549 16.549,30 16,30C15.451,30 15,29.549 15,29L15,17L13.79,17L8.05,29.42C7.888,29.771 7.536,29.997 7.15,30C7.005,30.001 6.862,29.97 6.73,29.91C6.375,29.747 6.147,29.391 6.147,29.001C6.147,28.856 6.179,28.712 6.24,28.58L12.24,15.58C12.269,15.542 12.296,15.502 12.32,15.46C12.361,15.396 12.408,15.336 12.46,15.28L12.62,15.17L12.78,15.07L13,15C13.047,14.995 13.093,14.995 13.14,15L15,15L15,7L11.15,7C10.601,7 10.15,6.549 10.15,6L10.15,3C10.15,2.451 10.601,2 11.15,2L21.15,2C21.699,2 22.15,2.451 22.15,3L22.15,6C22.15,6.549 21.699,7 21.15,7L18.62,7L20.92,9.06C21.847,8.688 22.911,8.896 23.63,9.59L25,11C25.489,11.471 25.766,12.122 25.766,12.801C25.766,14.172 24.637,15.301 23.266,15.301C22.589,15.301 21.941,15.026 21.47,14.54L20.1,13.12C19.41,12.434 19.182,11.403 19.52,10.49L17,8.24L17,15L19.51,15L19.67,15.1C19.729,15.128 19.783,15.165 19.83,15.21C19.885,15.263 19.932,15.324 19.97,15.39C20.002,15.426 20.029,15.466 20.05,15.51L26.05,28.51C26.131,28.658 26.174,28.823 26.174,28.992C26.174,29.39 25.936,29.752 25.57,29.91Z" style="fill:rgb(113,113,122);fill-rule:nonzero;"/>
            </g>
            <g transform="matrix(6.29091e-16,-10.7257,10.2738,6.56758e-16,2911.05,359.329)">
                <path d="M8.71,17.29C9.097,17.68 9.097,18.32 8.71,18.71C8.318,19.094 7.682,19.094 7.29,18.71L5.29,16.71C4.903,16.32 4.903,15.68 5.29,15.29L7.29,13.29C7.478,13.102 7.734,12.996 8,12.996C8.551,12.996 9.004,13.449 9.004,14C9.004,14.266 8.898,14.522 8.71,14.71L7.41,16L8.71,17.29Z" style="fill:rgb(113,113,122);fill-rule:nonzero;"/>
            </g>
        </g>
    </g>
</svg>
