<?xml version="1.0" encoding="UTF-8" standalone="no"?>
<!DOCTYPE svg PUBLIC "-//W3C//DTD SVG 1.1//EN" "http://www.w3.org/Graphics/SVG/1.1/DTD/svg11.dtd">
<svg width="100%" height="100%" viewBox="0 0 500 300" version="1.1" xmlns="http://www.w3.org/2000/svg" xmlns:xlink="http://www.w3.org/1999/xlink" xml:space="preserve" xmlns:serif="http://www.serif.com/" style="fill-rule:evenodd;clip-rule:evenodd;stroke-linejoin:round;stroke-miterlimit:2;">
    <g transform="matrix(1,0,0,1,-3300,0)">
        <g id="msg-Zoom-IN" transform="matrix(0.973347,0,0,0.932343,556.54,5.29976e-14)">
            <rect x="2818.58" y="-0" width="513.691" height="321.77" style="fill:rgb(39,39,42);"/>
            <g transform="matrix(6.84875,0,0,7.14995,2945.3,67.9435)">
                <path d="M19.007,1C19.005,1 18.989,1 18.984,1C12.41,1 7.001,6.409 7.001,12.983C7.001,15.824 8.011,18.575 9.85,20.74L1.29,29.29C0.903,29.68 0.903,30.32 1.29,30.71C1.682,31.094 2.318,31.094 2.71,30.71L11.26,22.15C13.425,23.982 16.171,24.988 19.007,24.988C25.587,24.988 31.001,19.574 31.001,12.994C31.001,6.414 25.587,1 19.007,1ZM24,14L20,14L20,18C20,18.549 19.549,19 19,19C18.451,19 18,18.549 18,18L18,14L14,14C13.451,14 13,13.549 13,13C13,12.451 13.451,12 14,12L18,12L18,8C18,7.451 18.451,7 19,7C19.549,7 20,7.451 20,8L20,12L24,12C24.549,12 25,12.451 25,13C25,13.549 24.549,14 24,14Z" style="fill:#fdf951;fill-rule:nonzero;"/>
            </g>
        </g>
    </g>
</svg>
