<?xml version="1.0" encoding="UTF-8" standalone="no"?>
<!DOCTYPE svg PUBLIC "-//W3C//DTD SVG 1.1//EN" "http://www.w3.org/Graphics/SVG/1.1/DTD/svg11.dtd">
<svg width="100%" height="100%" viewBox="0 0 500 300" version="1.1" xmlns="http://www.w3.org/2000/svg" xmlns:xlink="http://www.w3.org/1999/xlink" xml:space="preserve" xmlns:serif="http://www.serif.com/" style="fill-rule:evenodd;clip-rule:evenodd;stroke-linejoin:round;stroke-miterlimit:2;">
    <g transform="matrix(1,0,0,1,-3800,0)">
        <g id="msg-Brightness-UP" transform="matrix(0.973347,0,0,0.932343,1056.54,5.29976e-14)">
            <rect x="2818.58" y="-0" width="513.691" height="321.77" style="fill:rgb(39,39,42);"/>
            <g transform="matrix(6.84922,0,0,7.15044,2965.84,46.4642)">
                <path d="M16,5C22.032,5.007 26.993,9.968 27,16C27,22.034 22.034,27 16,27C9.966,27 5,22.034 5,16C5,9.966 9.966,5 16,5ZM21,17.002C21.548,17.002 22,16.55 22,16.002C22,15.453 21.548,15.002 21,15.002L17,15.002L17,11.002C17,10.454 16.549,10.002 16,10.002C15.451,10.002 15,10.454 15,11.002L15,15.002L11,15.002C10.452,15.002 10,15.453 10,16.002C10,16.55 10.452,17.002 11,17.002L15,17.002L15,21.002C15,21.55 15.451,22.002 16,22.002C16.549,22.002 17,21.55 17,21.002L17,17.002L21,17.002ZM16,4C15.451,4 15,3.549 15,3L15,2C15,1.451 15.451,1 16,1C16.549,1 17,1.451 17,2L17,3C17,3.549 16.549,4 16,4ZM16,28C16.549,28 17,28.451 17,29L17,30C17,30.549 16.549,31 16,31C15.451,31 15,30.549 15,30L15,29C15,28.451 15.451,28 16,28ZM30,15C30.549,15 31,15.451 31,16C31,16.549 30.549,17 30,17L29,17C28.451,17 28,16.549 28,16C28,15.451 28.451,15 29,15L30,15ZM3,15C3.549,15 4,15.451 4,16C4,16.549 3.549,17 3,17L2,17C1.451,17 1,16.549 1,16C1,15.451 1.451,15 2,15L3,15ZM25.9,7.515C25.712,7.703 25.458,7.808 25.192,7.808C24.644,7.808 24.192,7.356 24.192,6.807C24.192,6.542 24.297,6.288 24.485,6.1L25.193,5.394C25.381,5.199 25.641,5.089 25.912,5.089C26.461,5.089 26.912,5.54 26.912,6.089C26.912,6.36 26.802,6.62 26.607,6.808L25.9,7.515ZM6.1,24.485C6.288,24.297 6.542,24.192 6.808,24.192C7.356,24.192 7.808,24.644 7.808,25.192C7.808,25.458 7.703,25.712 7.515,25.9L6.807,26.606C6.619,26.801 6.359,26.911 6.088,26.911C5.539,26.911 5.088,26.46 5.088,25.911C5.088,25.64 5.198,25.38 5.393,25.192L6.1,24.485ZM25.9,24.485L26.606,25.193C26.801,25.381 26.911,25.641 26.911,25.912C26.911,26.461 26.46,26.912 25.911,26.912C25.64,26.912 25.38,26.802 25.192,26.607L24.485,25.9C24.297,25.712 24.192,25.458 24.192,25.193C24.192,24.644 24.644,24.192 25.193,24.192C25.458,24.192 25.712,24.297 25.9,24.485ZM6.1,7.515L5.393,6.808C5.205,6.62 5.1,6.366 5.1,6.1C5.1,5.552 5.552,5.1 6.1,5.1C6.366,5.1 6.62,5.205 6.808,5.393L7.515,6.1C7.703,6.288 7.808,6.542 7.808,6.807C7.808,7.356 7.356,7.808 6.807,7.808C6.542,7.808 6.288,7.703 6.1,7.515Z" style="fill:rgb(113,113,122);"/>
            </g>
        </g>
    </g>
</svg>
