<?xml version="1.0" encoding="UTF-8" standalone="no"?>
<!DOCTYPE svg PUBLIC "-//W3C//DTD SVG 1.1//EN" "http://www.w3.org/Graphics/SVG/1.1/DTD/svg11.dtd">
<svg width="100%" height="100%" viewBox="0 0 500 300" version="1.1" xmlns="http://www.w3.org/2000/svg" xmlns:xlink="http://www.w3.org/1999/xlink" xml:space="preserve" xmlns:serif="http://www.serif.com/" style="fill-rule:evenodd;clip-rule:evenodd;stroke-linejoin:round;stroke-miterlimit:2;">
    <g transform="matrix(1,0,0,1,-2800,0)">
        <g id="msg-OK" transform="matrix(0.973347,0,0,0.932343,56.5402,5.29976e-14)">
            <rect x="2818.58" y="-0" width="513.691" height="321.77" style="fill:rgb(39,39,42);"/>
            <g transform="matrix(1.02738,0,0,1.07257,-58.0884,-5.68434e-14)">
                <path d="M3106.56,206.562C3092.09,221.048 3072.08,230 3050,230C3027.92,230 3007.91,221.048 2993.44,206.562C2978.95,192.089 2970,172.083 2970,150C2970,127.917 2978.95,107.911 2993.44,93.438C3007.91,78.952 3027.92,70 3050,70C3072.1,70 3092.09,78.952 3106.56,93.438C3121.05,107.911 3130,127.917 3130,150C3130,172.083 3121.05,192.089 3106.56,206.562ZM3097.16,197.159C3109.24,185.092 3116.7,168.411 3116.7,150C3116.7,131.589 3109.24,114.908 3097.16,102.841C3085.09,90.764 3068.42,83.3 3050,83.3C3031.59,83.3 3014.91,90.764 3002.84,102.841C2990.76,114.908 2983.3,131.589 2983.3,150C2983.3,168.411 2990.76,185.092 3002.84,197.159C3014.91,209.236 3031.59,216.7 3050,216.7C3068.41,216.7 3085.09,209.236 3097.16,197.159ZM3087.8,131.554L3041.58,177.773C3040.33,179.027 3038.68,179.688 3036.89,179.688C3035.11,179.688 3033.46,178.961 3032.21,177.773L3012.33,157.899C3009.76,155.323 3009.76,151.164 3012.33,148.589C3014.91,146.014 3019.07,146.014 3021.64,148.589L3036.83,163.775L3078.36,122.244C3080.93,119.669 3085.09,119.669 3087.67,122.244C3090.24,124.819 3090.24,128.978 3087.67,131.554L3087.8,131.554Z" style="fill:#fdf951;"/>
            </g>
        </g>
    </g>
</svg>
