<?xml version="1.0" encoding="UTF-8" standalone="no"?>
<!DOCTYPE svg PUBLIC "-//W3C//DTD SVG 1.1//EN" "http://www.w3.org/Graphics/SVG/1.1/DTD/svg11.dtd">
<svg width="100%" height="100%" viewBox="0 0 500 300" version="1.1" xmlns="http://www.w3.org/2000/svg" xmlns:xlink="http://www.w3.org/1999/xlink" xml:space="preserve" xmlns:serif="http://www.serif.com/" style="fill-rule:evenodd;clip-rule:evenodd;stroke-linejoin:round;stroke-miterlimit:2;">
    <g transform="matrix(1,0,0,1,-4300,-300)">
        <g id="msg-Focus-OFF" transform="matrix(0.973347,0,0,0.932343,1556.54,300)">
            <rect x="2818.58" y="-0" width="513.691" height="321.77" style="fill:rgb(39,39,42);"/>
            <g transform="matrix(1.02738,0,0,1.07257,-1599.16,-5.68434e-14)">
                <path d="M4606.56,206.562C4592.09,221.048 4572.08,230 4550,230C4527.92,230 4507.91,221.048 4493.44,206.562C4478.95,192.089 4470,172.083 4470,150C4470,127.917 4478.95,107.911 4493.44,93.438C4507.91,78.952 4527.92,70 4550,70C4572.1,70 4592.09,78.952 4606.56,93.438C4621.05,107.911 4630,127.917 4630,150C4630,172.083 4621.05,192.089 4606.56,206.562ZM4597.16,197.159C4609.24,185.092 4616.7,168.411 4616.7,150C4616.7,131.589 4609.24,114.908 4597.16,102.841C4585.09,90.764 4568.42,83.3 4550,83.3C4531.59,83.3 4514.91,90.764 4502.84,102.841C4490.76,114.908 4483.3,131.589 4483.3,150C4483.3,168.411 4490.76,185.092 4502.84,197.159C4514.91,209.236 4531.59,216.7 4550,216.7C4568.41,216.7 4585.09,209.236 4597.16,197.159Z" style="fill:rgb(113,113,122);"/>
            </g>
            <g transform="matrix(2.93475,0,0,3.06381,3028.47,111.873)">
                <path d="M27,15L27,19.67C27,25.36 22.07,30 16,30C9.93,30 5,25.36 5,19.67L5,15C5,14.452 5.452,14.001 6,14.001C6.105,14.001 6.21,14.017 6.31,14.05L6.89,14.24C10.3,15.36 13.12,18.35 15,21.58L15,15.93C10.979,15.357 7.969,11.861 8,7.8L8,3C8,2.998 8,2.996 8,2.994C8,2.445 8.451,1.994 9,1.994C9.271,1.994 9.532,2.105 9.72,2.3L12.5,5.17L15.28,2.3C15.682,1.921 16.318,1.921 16.72,2.3L19.5,5.17L22.28,2.3C22.468,2.105 22.729,1.994 23,1.994C23.549,1.994 24,2.445 24,2.994C24,2.996 24,2.998 24,3L24,7.8C24.031,11.861 21.021,15.357 17,15.93L17,21.58C18.88,18.35 21.7,15.36 25.11,14.24L25.69,14.05C25.79,14.017 25.895,14.001 26,14.001C26.548,14.001 27,14.452 27,15Z" style="fill:rgb(113,113,122);fill-rule:nonzero;"/>
            </g>
            <g transform="matrix(0.726469,-0.758419,0.726469,0.758419,-496.37,3384.17)">
                <path d="M4733.33,456.666C4736.99,456.666 4740,453.657 4740,450C4740,446.343 4736.99,443.334 4733.33,443.334L4706.67,443.334L4706.67,416.669C4706.67,413.012 4703.66,410.003 4700,410.003C4696.34,410.003 4693.33,413.012 4693.33,416.669L4693.33,443.334L4666.67,443.334C4663.01,443.334 4660,446.343 4660,450C4660,453.657 4663.01,456.666 4666.67,456.666L4693.33,456.666L4693.33,483.331C4693.33,486.988 4696.34,489.997 4700,489.997C4703.66,489.997 4706.67,486.988 4706.67,483.331L4706.67,456.666L4733.33,456.666Z" style="fill:rgb(113,113,122);"/>
            </g>
        </g>
    </g>
</svg>
